<svg xmlns="http://www.w3.org/2000/svg" xmlns:xlink="http://www.w3.org/1999/xlink" fill="none" version="1.1" width="88" height="87" viewBox="0 0 88 87"><defs><clipPath id="master_svg0_0_568"><rect x="0" y="0" width="88" height="87" rx="0"/></clipPath></defs><g clip-path="url(#master_svg0_0_568)"><g><path d="M0,75.7821C0,81.9781,5.08028,87,11.3468,87C11.3468,87,76.6528,87,76.6528,87C82.9204,87,88,81.9774,88,75.7821C88,75.7821,88,11.2182,88,11.2182C88,5.02187,82.9197,0,76.6532,0C76.6532,0,11.3472,0,11.3472,0C5.07959,0,0,5.02255,0,11.2179C0,11.2179,0,75.7818,0,75.7818C0,75.7818,0,75.7821,0,75.7821Z" fill="#563D7C" fill-opacity="1"/></g><g><path d="M36.491779724121095,38.483209375C36.491779724121095,38.483209375,36.491779724121095,26.162869375,36.491779724121095,26.162869375C36.491779724121095,26.162869375,47.461179724121095,26.162869375,47.461179724121095,26.162869375C48.5061797241211,26.162869375,49.513379724121094,26.248849375,50.483479724121096,26.421149375C51.453479724121095,26.593109374999997,52.3118797241211,26.900329375,53.05817972412109,27.343109374999997C53.804079724121095,27.786009375,54.40117972412109,28.400709374999998,54.8490797241211,29.187509374999998C55.29667972412109,29.974609375,55.5207797241211,30.982909375,55.5207797241211,32.212109375C55.5207797241211,34.425509375000004,54.8490797241211,36.024109374999995,53.505679724121094,37.007609375C52.16267972412109,37.991509375,50.446379724121094,38.483209375,48.35667972412109,38.483209375C48.35667972412109,38.483209375,36.491779724121095,38.483209375,36.491779724121095,38.483209375C36.491779724121095,38.483209375,36.491779724121095,38.483209375,36.491779724121095,38.483209375ZM24.775779724121094,17.162109375C24.775779724121094,17.162109375,24.775779724121094,69.83790937500001,24.775779724121094,69.83790937500001C24.775779724121094,69.83790937500001,50.59547972412109,69.83790937500001,50.59547972412109,69.83790937500001C52.98357972412109,69.83790937500001,55.309379724121094,69.542909375,57.57297972412109,68.95260937500001C59.836579724121094,68.362309375,61.85127972412109,67.452509375,63.6174797241211,66.223009375C65.3832797241211,64.993409375,66.7888797241211,63.407009375,67.8335797241211,61.464509375C68.8785797241211,59.521609375,69.40067972412109,57.222209375,69.40067972412109,54.566309375C69.40067972412109,51.270909375,68.5921797241211,48.455309375,66.9755797241211,46.119209375C65.35857972412109,43.782709374999996,62.908279724121094,42.147409374999995,59.62477972412109,41.212809375C62.01287972412109,40.081809375,63.816479724121095,38.630709374999995,65.0354797241211,36.860109375C66.2539797241211,35.089509375,66.86347972412109,32.876509375,66.86347972412109,30.220309375C66.86347972412109,27.761109375,66.4530797241211,25.695589375,65.6321797241211,24.023219375C64.81127972412109,22.351179375,63.65457972412109,21.010839375,62.16207972412109,20.002519375C60.66977972412109,18.994209375,58.87887972412109,18.268639375,56.78917972412109,17.826163375C54.69987972412109,17.383347375,52.386479724121095,17.162109375,49.84927972412109,17.162109375C49.84927972412109,17.162109375,24.775779724121094,17.162109375,24.775779724121094,17.162109375C24.775779724121094,17.162109375,24.775779724121094,17.162109375,24.775779724121094,17.162109375ZM36.491779724121095,60.837109375C36.491779724121095,60.837109375,36.491779724121095,46.377109375,36.491779724121095,46.377109375C36.491779724121095,46.377109375,49.25217972412109,46.377109375,49.25217972412109,46.377109375C51.78937972412109,46.377109375,53.82917972412109,46.954809374999996,55.37157972412109,48.111009374999995C56.913679724121096,49.266809375,57.685079724121096,51.197109375,57.685079724121096,53.902309375C57.685079724121096,55.279709375,57.44847972412109,56.410709375,56.97587972412109,57.295909375C56.5031797241211,58.181209375,55.86897972412109,58.882309375,55.072879724121094,59.398609375C54.277079724121094,59.915109375,53.356479724121094,60.283909375,52.3118797241211,60.505409375C51.2668797241211,60.726309375,50.172679724121096,60.837109375,49.028379724121095,60.837109375C49.028379724121095,60.837109375,36.491779724121095,60.837109375,36.491779724121095,60.837109375C36.491779724121095,60.837109375,36.491779724121095,60.837109375,36.491779724121095,60.837109375Z" fill="#FFFFFF" fill-opacity="1"/></g></g></svg>