<svg xmlns="http://www.w3.org/2000/svg" xmlns:xlink="http://www.w3.org/1999/xlink" fill="none" version="1.1" width="120" height="119" viewBox="0 0 120 119"><defs><clipPath id="master_svg0_0_584"><rect x="0" y="0" width="120" height="119" rx="0"/></clipPath></defs><g clip-path="url(#master_svg0_0_584)"><g><path d="M22.13249813079834,101.1537C22.13249813079834,101.1537,13.70999813079834,7.4375,13.70999813079834,7.4375C13.70999813079834,7.4375,106.28999813079834,7.4375,106.28999813079834,7.4375C106.28999813079834,7.4375,97.85619813079833,101.1388,97.85619813079833,101.1388C97.85619813079833,101.1388,59.94369813079834,111.5625,59.94369813079834,111.5625C59.94369813079834,111.5625,22.13249813079834,101.1537,22.13249813079834,101.1537Z" fill="#1572B6" fill-opacity="1"/></g><g><path d="M60,103.59694383392333C60,103.59694383392333,90.6375,95.17394383392335,90.6375,95.17394383392335C90.6375,95.17394383392335,97.845,15.10184383392334,97.845,15.10184383392334C97.845,15.10184383392334,60,15.10184383392334,60,15.10184383392334C60,15.10184383392334,60,103.59694383392333,60,103.59694383392333Z" fill="#33A9DC" fill-opacity="1"/></g><g><path d="M60,49.05403170776367C60,49.05403170776367,75.3375,49.05403170776367,75.3375,49.05403170776367C75.3375,49.05403170776367,76.395,37.284231707763674,76.395,37.284231707763674C76.395,37.284231707763674,60,37.284231707763674,60,37.284231707763674C60,37.284231707763674,60,25.789531707763672,60,25.789531707763672C60,25.789531707763672,89.0625,25.789531707763672,89.0625,25.789531707763672C89.0625,25.789531707763672,88.785,28.872371707763673,88.785,28.872371707763673C88.785,28.872371707763673,85.9387,60.54873170776367,85.9387,60.54873170776367C85.9387,60.54873170776367,60,60.54873170776367,60,60.54873170776367C60,60.54873170776367,60,49.05403170776367,60,49.05403170776367C60,49.05403170776367,60,49.05403170776367,60,49.05403170776367Z" fill="#FFFFFF" fill-opacity="1"/></g><g><path d="M60.07119771118164,78.90445893554687C60.07119771118164,78.90445893554687,60.018697711181645,78.91935893554688,60.018697711181645,78.91935893554688C60.018697711181645,78.91935893554688,47.11119771118164,75.46087893554687,47.11119771118164,75.46087893554687C47.11119771118164,75.46087893554687,46.28629771118164,66.29415893554688,46.28629771118164,66.29415893554688C46.28629771118164,66.29415893554688,34.64999771118164,66.29415893554688,34.64999771118164,66.29415893554688C34.64999771118164,66.29415893554688,36.27374771118164,84.34125893554688,36.27374771118164,84.34125893554688C36.27374771118164,84.34125893554688,60.014997711181636,90.87885893554687,60.014997711181636,90.87885893554687C60.014997711181636,90.87885893554687,60.07119771118164,90.86395893554688,60.07119771118164,90.86395893554688C60.07119771118164,90.86395893554688,60.07119771118164,78.90445893554687,60.07119771118164,78.90445893554687C60.07119771118164,78.90445893554687,60.07119771118164,78.90445893554687,60.07119771118164,78.90445893554687Z" fill="#EBEBEB" fill-opacity="1"/></g><g><path d="M74.35129496459962,60.0615234375C74.35129496459962,60.0615234375,72.9562949645996,75.45342343749999,72.9562949645996,75.45342343749999C72.9562949645996,75.45342343749999,60.02999496459961,78.9118234375,60.02999496459961,78.9118234375C60.02999496459961,78.9118234375,60.02999496459961,90.8714234375,60.02999496459961,90.8714234375C60.02999496459961,90.8714234375,83.78999496459961,84.34122343749999,83.78999496459961,84.34122343749999C83.78999496459961,84.34122343749999,83.96629496459961,82.4000234375,83.96629496459961,82.4000234375C83.96629496459961,82.4000234375,85.97999496459961,60.0615234375,85.97999496459961,60.0615234375C85.97999496459961,60.0615234375,74.35129496459962,60.0615234375,74.35129496459962,60.0615234375C74.35129496459962,60.0615234375,74.35129496459962,60.0615234375,74.35129496459962,60.0615234375Z" fill="#FFFFFF" fill-opacity="1"/></g><g><path d="M60.0411991607666,25.789531707763672C60.0411991607666,25.789531707763672,60.0411991607666,37.284231707763674,60.0411991607666,37.284231707763674C60.0411991607666,37.284231707763674,32.0437491607666,37.284231707763674,32.0437491607666,37.284231707763674C32.0437491607666,37.284231707763674,31.8112501607666,34.699661707763674,31.8112501607666,34.699661707763674C31.8112501607666,34.699661707763674,31.282500160766602,28.872371707763673,31.282500160766602,28.872371707763673C31.282500160766602,28.872371707763673,31.0049991607666,25.789531707763672,31.0049991607666,25.789531707763672C31.0049991607666,25.789531707763672,60.0411991607666,25.789531707763672,60.0411991607666,25.789531707763672C60.0411991607666,25.789531707763672,60.0411991607666,25.789531707763672,60.0411991607666,25.789531707763672ZM59.999999160766606,49.05403170776367C59.999999160766606,49.05403170776367,59.999999160766606,60.54873170776367,59.999999160766606,60.54873170776367C59.999999160766606,60.54873170776367,47.253799160766604,60.54873170776367,47.253799160766604,60.54873170776367C47.253799160766604,60.54873170776367,47.0211991607666,57.96413170776367,47.0211991607666,57.96413170776367C47.0211991607666,57.96413170776367,46.496299160766604,52.136831707763676,46.496299160766604,52.136831707763676C46.496299160766604,52.136831707763676,46.218699160766604,49.05403170776367,46.218699160766604,49.05403170776367C46.218699160766604,49.05403170776367,59.999999160766606,49.05403170776367,59.999999160766606,49.05403170776367C59.999999160766606,49.05403170776367,59.999999160766606,49.05403170776367,59.999999160766606,49.05403170776367Z" fill="#EBEBEB" fill-opacity="1"/></g></g></svg>