<svg xmlns="http://www.w3.org/2000/svg" xmlns:xlink="http://www.w3.org/1999/xlink" fill="none" version="1.1" width="105" height="105" viewBox="0 0 105 105"><defs><clipPath id="master_svg0_0_559"><rect x="0" y="0" width="105" height="105" rx="0"/></clipPath></defs><g clip-path="url(#master_svg0_0_559)"><g><path d="M103.0199998807907,47.82195022029877C103.0199998807907,47.82195022029877,57.17579988079071,1.980380220298767,57.17579988079071,1.980380220298767C54.53719988079071,-0.6597937797012329,50.25519988079071,-0.6597937797012329,47.61339988079071,1.980380220298767C47.61339988079071,1.980380220298767,38.09369988079071,11.500150220298767,38.09369988079071,11.500150220298767C38.09369988079071,11.500150220298767,50.16989988079071,23.576350220298767,50.16989988079071,23.576350220298767C52.97619988079071,22.628050220298768,56.19429988079071,23.264250220298766,58.43129988079071,25.50125022029877C60.67889988079071,27.75255022029877,61.31059988079071,30.99815022029877,60.33929988079071,33.81345022029877C60.33929988079071,33.81345022029877,71.97749988079072,45.452050220298766,71.97749988079072,45.452050220298766C74.79319988079071,44.48205022029877,78.04209988079072,45.109550220298765,80.29099988079071,47.362150220298766C83.43399988079071,50.50395022029877,83.43399988079071,55.596050220298764,80.29099988079071,58.73985022029877C77.1470998807907,61.884150220298764,72.05499988079072,61.884150220298764,68.9094998807907,58.73985022029877C66.54539988079071,56.373250220298765,65.9612998807907,52.90125022029877,67.1581998807907,49.98875022029877C67.1581998807907,49.98875022029877,56.30459988079071,39.135250220298765,56.30459988079071,39.135250220298765C56.30459988079071,39.135250220298765,56.303399880790714,67.69725022029877,56.303399880790714,67.69725022029877C57.09019988079071,68.08625022029877,57.80879988079071,68.60015022029877,58.43129988079071,69.21895022029877C61.57429988079071,72.36075022029877,61.57429988079071,77.45325022029877,58.43129988079071,80.59955022029877C55.28739988079071,83.74215022029877,50.19289988079071,83.74215022029877,47.05349988079071,80.59955022029877C43.91049988079071,77.45325022029877,43.91049988079071,72.36115022029877,47.05349988079071,69.21935022029876C47.80669988079071,68.46575022029877,48.70189988079071,67.86895022029877,49.68709988079071,67.46345022029877C49.68709988079071,67.46345022029877,49.68709988079071,38.635250220298765,49.68709988079071,38.635250220298765C48.70039988079071,38.232450220298766,47.80479988079071,37.635250220298765,47.05349988079071,36.87935022029877C44.67219988079071,34.501250220298765,44.09959988079071,31.00715022029877,45.31979988079071,28.083150220298766C45.31979988079071,28.083150220298766,33.41539988079071,16.177550220298766,33.41539988079071,16.177550220298766C33.41539988079071,16.177550220298766,1.9810498807907104,47.60985022029877,1.9810498807907104,47.60985022029877C-0.6603521192092896,50.25245022029877,-0.6603521192092896,54.53495022029877,1.9810498807907104,57.17555022029877C1.9810498807907104,57.17555022029877,47.82589988079071,103.01825022029877,47.82589988079071,103.01825022029877C50.46519988079071,105.65825022029877,54.74639988079071,105.65825022029877,57.38909988079071,103.01825022029877C57.38909988079071,103.01825022029877,103.01899988079072,57.38835022029877,103.01899988079072,57.38835022029877C105.6599998807907,54.746950220298764,105.6599998807907,50.462050220298764,103.01899988079072,47.82195022029877" fill="#DE4C36" fill-opacity="1"/></g></g></svg>