<svg xmlns="http://www.w3.org/2000/svg" xmlns:xlink="http://www.w3.org/1999/xlink" fill="none" version="1.1" width="120" height="120" viewBox="0 0 120 120"><defs><clipPath id="master_svg0_0_592"><rect x="0" y="0" width="120" height="120" rx="0"/></clipPath></defs><g clip-path="url(#master_svg0_0_592)"><g><path d="M22.132500190734863,102.0038C22.132500190734863,102.0038,13.706250190734863,7.5,13.706250190734863,7.5C13.706250190734863,7.5,106.29375019073487,7.5,106.29375019073487,7.5C106.29375019073487,7.5,97.85625019073487,101.9888,97.85625019073487,101.9888C97.85625019073487,101.9888,59.94375019073486,112.5,59.94375019073486,112.5C59.94375019073486,112.5,22.132500190734863,102.0038,22.132500190734863,102.0038Z" fill="#E44F26" fill-opacity="1"/></g><g><path d="M60,104.46755022888183C60,104.46755022888183,90.6375,95.97375022888184,90.6375,95.97375022888184C90.6375,95.97375022888184,97.845,15.228750228881836,97.845,15.228750228881836C97.845,15.228750228881836,60,15.228750228881836,60,15.228750228881836C60,15.228750228881836,60,104.46755022888183,60,104.46755022888183Z" fill="#F1662A" fill-opacity="1"/></g><g><path d="M60,50.27624794006348C60,50.27624794006348,44.6625,50.27624794006348,44.6625,50.27624794006348C44.6625,50.27624794006348,43.605000000000004,38.40744794006348,43.605000000000004,38.40744794006348C43.605000000000004,38.40744794006348,60,38.40744794006348,60,38.40744794006348C60,38.40744794006348,60,26.816247940063477,60,26.816247940063477C60,26.816247940063477,30.9375,26.816247940063477,30.9375,26.816247940063477C30.9375,26.816247940063477,31.215001,29.928747940063477,31.215001,29.928747940063477C31.215001,29.928747940063477,34.06125,61.86744794006348,34.06125,61.86744794006348C34.06125,61.86744794006348,60,61.86744794006348,60,61.86744794006348C60,61.86744794006348,60,50.27624794006348,60,50.27624794006348C60,50.27624794006348,60,50.27624794006348,60,50.27624794006348ZM60,80.37754794006348C60,80.37754794006348,59.947500000000005,80.39254794006348,59.947500000000005,80.39254794006348C59.947500000000005,80.39254794006348,47.04,76.90874794006348,47.04,76.90874794006348C47.04,76.90874794006348,46.215,67.66504794006347,46.215,67.66504794006347C46.215,67.66504794006347,34.57875,67.66504794006347,34.57875,67.66504794006347C34.57875,67.66504794006347,36.2025,85.86004794006348,36.2025,85.86004794006348C36.2025,85.86004794006348,59.947500000000005,92.45244794006348,59.947500000000005,92.45244794006348C59.947500000000005,92.45244794006348,60,92.43754794006348,60,92.43754794006348C60,92.43754794006348,60,80.37754794006348,60,80.37754794006348Z" fill="#EBEBEB" fill-opacity="1"/></g><g><path d="M59.95874786376953,50.27624794006348C59.95874786376953,50.27624794006348,59.95874786376953,61.867547940063474,59.95874786376953,61.867547940063474C59.95874786376953,61.867547940063474,74.23124786376954,61.867547940063474,74.23124786376954,61.867547940063474C74.23124786376954,61.867547940063474,72.88874786376954,76.90124794006348,72.88874786376954,76.90124794006348C72.88874786376954,76.90124794006348,59.95874786376953,80.38874794006347,59.95874786376953,80.38874794006347C59.95874786376953,80.38874794006347,59.95874786376953,92.44874794006347,59.95874786376953,92.44874794006347C59.95874786376953,92.44874794006347,83.72244786376953,85.86004794006348,83.72244786376953,85.86004794006348C83.72244786376953,85.86004794006348,83.89494786376953,83.90254794006347,83.89494786376953,83.90254794006347C83.89494786376953,83.90254794006347,86.61744786376953,53.38874794006348,86.61744786376953,53.38874794006348C86.61744786376953,53.38874794006348,86.90244786376954,50.27624794006348,86.90244786376954,50.27624794006348C86.90244786376954,50.27624794006348,59.95874786376953,50.27624794006348,59.95874786376953,50.27624794006348C59.95874786376953,50.27624794006348,59.95874786376953,50.27624794006348,59.95874786376953,50.27624794006348ZM59.95874786376953,26.816247940063477C59.95874786376953,26.816247940063477,59.95874786376953,38.40744794006348,59.95874786376953,38.40744794006348C59.95874786376953,38.40744794006348,87.95624786376953,38.40744794006348,87.95624786376953,38.40744794006348C87.95624786376953,38.40744794006348,88.18874786376954,35.80499794006347,88.18874786376954,35.80499794006347C88.18874786376954,35.80499794006347,88.71754786376954,29.928747940063477,88.71754786376954,29.928747940063477C88.71754786376954,29.928747940063477,88.99494786376954,26.816247940063477,88.99494786376954,26.816247940063477C88.99494786376954,26.816247940063477,59.95874786376953,26.816247940063477,59.95874786376953,26.816247940063477C59.95874786376953,26.816247940063477,59.95874786376953,26.816247940063477,59.95874786376953,26.816247940063477Z" fill="#FFFFFF" fill-opacity="1"/></g></g></svg>