<svg xmlns="http://www.w3.org/2000/svg" xmlns:xlink="http://www.w3.org/1999/xlink" fill="none" version="1.1" width="120" height="120" viewBox="0 0 120 120"><defs><clipPath id="master_svg0_0_580"><rect x="0" y="0" width="120" height="120" rx="0"/></clipPath></defs><g clip-path="url(#master_svg0_0_580)"><g><path d="M7.5,7.5C7.5,7.5,112.5,7.5,112.5,7.5C112.5,7.5,112.5,112.5,112.5,112.5C112.5,112.5,7.5,112.5,7.5,112.5C7.5,112.5,7.5,7.5,7.5,7.5Z" fill="#F5DE19" fill-opacity="1"/></g><g><path d="M78.03380045776368,89.53121532592773C78.92840045776367,91.34851532592774,80.31830045776367,92.87591532592774,82.04340045776368,93.93751532592773C83.76840045776368,94.99901532592773,85.75830045776368,95.55151532592774,87.78380045776368,95.53121532592773C91.87130045776368,95.53121532592773,94.48500045776368,93.48751532592773,94.48500045776368,90.65621532592773C94.48500045776368,87.28121532592773,91.80000045776367,86.07371532592774,87.30000045776367,84.10501532592774C87.30000045776367,84.10501532592774,84.83250045776367,83.04751532592773,84.83250045776367,83.04751532592773C77.70750045776367,80.01371532592773,72.98250045776368,76.21501532592774,72.98250045776368,68.18251532592774C72.98250045776368,60.78374532592773,78.60750045776368,55.147500225927736,87.43130045776367,55.147500225927736C90.28760045776367,54.941230325927734,93.14160045776367,55.58051732592774,95.63700045776366,56.98561532592773C98.13240045776368,58.39071532592774,100.15890045776368,60.499435325927735,101.46370045776368,63.04874532592773C101.46370045776368,63.04874532592773,93.75000045776366,67.98001532592774,93.75000045776366,67.98001532592774C93.24760045776367,66.71591532592774,92.37280045776367,65.63451532592774,91.24160045776367,64.87904532592773C90.11040045776367,64.12359532592774,88.77630045776368,63.72983532592774,87.41630045776367,63.749995325927735C86.82290045776367,63.69059532592773,86.22360045776367,63.755455325927734,85.65660045776367,63.94044532592773C85.08970045776367,64.12543532592774,84.56750045776367,64.42649532592773,84.12330045776366,64.82444532592774C83.67920045776367,65.22241532592773,83.32280045776366,65.70851532592773,83.07690045776367,66.25181532592774C82.83090045776368,66.79511532592774,82.70090045776368,67.38371532592774,82.69500045776367,67.98001532592774C82.69500045776367,70.93871532592773,84.52880045776368,72.13871532592773,88.76250045776368,73.98001532592774C88.76250045776368,73.98001532592774,91.23000045776368,75.03751532592773,91.23000045776368,75.03751532592773C99.61500045776367,78.63371532592774,104.35500045776367,82.29751532592773,104.35500045776367,90.53621532592774C104.35500045776367,99.42001532592774,97.37630045776368,104.28751532592773,88.00500045776367,104.28751532592773C84.35360045776366,104.52011532592773,80.71300045776367,103.69111532592774,77.52230045776366,101.90051532592773C74.33170045776367,100.10991532592774,71.72740045776368,97.43421532592774,70.02380045776367,94.19621532592774C70.02380045776367,94.19621532592774,78.03380045776368,89.53121532592773,78.03380045776368,89.53121532592773ZM43.17750045776367,90.38621532592774C44.72625045776367,93.13501532592772,46.136300457763674,95.46001532592774,49.52630045776367,95.46001532592774C52.76630045776368,95.46001532592774,54.813800457763676,94.19251532592773,54.813800457763676,89.26121532592774C54.813800457763676,89.26121532592774,54.813800457763676,55.70999932592773,54.813800457763676,55.70999932592773C54.813800457763676,55.70999932592773,64.68000045776367,55.70999932592773,64.68000045776367,55.70999932592773C64.68000045776367,55.70999932592773,64.68000045776367,89.39251532592773,64.68000045776367,89.39251532592773C64.68000045776367,99.60751532592774,58.68000045776367,104.25751532592773,49.94630045776367,104.25751532592773C46.859100457763674,104.42621532592773,43.793070457763676,103.65691532592774,41.151320457763674,102.05051532592773C38.50957045776367,100.44421532592773,36.41571045776367,98.07611532592773,35.14500045776367,95.25751532592773C35.14500045776367,95.25751532592773,43.17750045776367,90.38621532592774,43.17750045776367,90.38621532592774Z" fill="#000000" fill-opacity="1"/></g></g></svg>