<svg xmlns="http://www.w3.org/2000/svg" xmlns:xlink="http://www.w3.org/1999/xlink" fill="none" version="1.1" width="113" height="101" viewBox="0 0 113 101"><defs><clipPath id="master_svg0_0_562"><rect x="0" y="0" width="113" height="101" rx="0"/></clipPath></defs><g clip-path="url(#master_svg0_0_562)"><g><path d="M92.9055246706672,32.702778525838035C91.7030246706672,32.28867852583804,90.4904246706672,31.905078525838036,89.26862467066721,31.552278525838034C89.4739246706672,30.710678525838034,89.6628246706672,29.879178525838036,89.8305246706672,29.062278525838035C92.5838246706672,15.648378525838035,90.7839246706672,4.841798525838034,84.6360246706672,1.2837685258380347C78.7415246706672,-2.127201474161965,69.1016246706672,1.4295085258380347,59.3658246706672,9.933438525838035C58.4063246706672,10.773078525838034,57.4681246706672,11.636878525838034,56.552124670667204,12.523978525838034C55.9389246706672,11.934078525838034,55.3148246706672,11.355578525838034,54.680324670667204,10.788878525838035C44.4767246706672,1.6961785258380346,34.2492246706672,-2.1360614741619655,28.108024670667202,1.4321685258380348C22.2188246706672,4.8537585258380345,20.475024670667203,15.012678525838036,22.953724670667203,27.725378525838035C23.2003246706672,28.984478525838036,23.4788246706672,30.236978525838033,23.7888246706672,31.481878525838034C22.341124670667202,31.894778525838035,20.9442246706672,32.334178525838034,19.6073246706672,32.80197852583804C7.644394670667201,36.98817852583804,0.004724670667201281,43.548278525838036,0.004724670667201281,50.35287852583804C0.004724670667201281,57.380878525838035,8.206254670667201,64.42997852583804,20.6661246706672,68.70437852583804C21.676224670667203,69.04947852583804,22.694824670667202,69.36927852583804,23.720824670667202,69.66337852583804C23.3876246706672,71.00417852583803,23.0918246706672,72.35407852583803,22.833724670667202,73.71137852583803C20.470624670667203,86.20347852583804,22.3159246706672,96.12227852583804,28.1892246706672,99.52217852583803C34.2554246706672,103.03307852583804,44.4369246706672,99.42477852583804,54.3505246706672,90.72677852583803C55.154424670667204,90.01967852583803,55.9406246706672,89.29247852583804,56.7083246706672,88.54597852583804C57.7003246706672,89.50657852583804,58.7188246706672,90.43927852583803,59.7626246706672,91.34297852583803C69.3659246706672,99.63647852583803,78.8501246706672,102.98507852583803,84.7177246706672,99.57627852583803C90.7781246706672,96.05497852583804,92.7479246706672,85.39947852583803,90.19072467066721,72.43557852583804C89.9892246706672,71.41997852583803,89.7633246706672,70.40937852583804,89.5131246706672,69.40467852583804C90.2282246706672,69.19207852583803,90.9299246706672,68.97327852583804,91.6141246706672,68.74557852583804C104.5677246706672,64.43847852583804,112.9957246706672,57.47477852583803,112.9957246706672,50.35287852583804C112.9957246706672,43.52347852583804,105.1087246706672,36.91907852583803,92.9055246706672,32.702778525838035C92.9055246706672,32.702778525838035,92.9055246706672,32.702778525838035,92.9055246706672,32.702778525838035ZM90.0962246706672,64.14737852583804C89.4783246706672,64.35247852583804,88.8445246706672,64.55047852583803,88.1983246706672,64.74317852583803C86.7683246706672,60.199578525838035,84.8386246706672,55.36837852583803,82.4768246706672,50.376378525838035C84.73052467066721,45.50357852583804,86.5860246706672,40.73397852583803,87.9759246706672,36.21997852583804C89.1318246706672,36.555778525838036,90.2533246706672,36.909778525838036,91.3347246706672,37.28317852583803C101.7907246706672,40.89617852583803,108.1687246706672,46.23717852583803,108.1687246706672,50.35287852583804C108.1687246706672,54.73667852583804,101.2807246706672,60.42767852583803,90.0962246706672,64.14737852583804C90.0962246706672,64.14737852583804,90.0962246706672,64.14737852583804,90.0962246706672,64.14737852583804ZM85.4556246706672,73.37647852583804C86.5864246706672,79.10867852583803,86.7475246706672,84.29157852583803,85.9985246706672,88.34357852583804C85.3259246706672,91.98437852583804,83.9726246706672,94.41147852583804,82.29902467066721,95.38387852583803C78.7384246706672,97.45257852583804,71.1235246706672,94.76367852583803,62.9109246706672,87.67067852583803C61.9401246706672,86.83047852583803,60.9927246706672,85.96337852583804,60.0698246706672,85.07037852583804C63.2539246706672,81.57567852583803,66.4357246706672,77.51307852583804,69.5412246706672,73.00087852583803C75.00362467066721,72.51447852583803,80.1641246706672,71.71887852583804,84.8439246706672,70.63307852583803C85.0693246706672,71.54257852583804,85.27332467066721,72.45727852583803,85.4556246706672,73.37647852583804C85.4556246706672,73.37647852583804,85.4556246706672,73.37647852583804,85.4556246706672,73.37647852583804ZM38.5257246706672,95.02637852583804C35.0468246706672,96.25917852583804,32.2759246706672,96.29467852583804,30.6009246706672,95.32537852583803C27.0368246706672,93.26237852583803,25.5551246706672,85.29807852583804,27.5762246706672,74.61507852583803C27.8164246706672,73.35267852583803,28.0915246706672,72.09727852583804,28.4011246706672,70.85017852583803C33.0293246706672,71.87787852583803,38.1523246706672,72.61677852583803,43.6275246706672,73.06237852583803C46.7541246706672,77.47767852583803,50.0278246706672,81.53577852583804,53.3270246706672,85.08937852583803C52.6259246706672,85.77027852583804,51.9081246706672,86.43377852583804,51.1745246706672,87.07927852583803C46.790324670667204,90.92527852583804,42.3974246706672,93.65397852583803,38.5257246706672,95.02637852583804C38.5257246706672,95.02637852583804,38.5257246706672,95.02637852583804,38.5257246706672,95.02637852583804ZM22.2277246706672,64.12037852583803C16.7180246706672,62.230178525838035,12.1680246706672,59.773878525838036,9.0492746706672,57.093378525838034C6.246574670667202,54.68487852583804,4.831984670667201,52.29317852583804,4.831984670667201,50.35287852583804C4.831984670667201,46.22347852583803,10.965724670667202,40.95637852583803,21.196224670667203,37.37667852583804C22.4378246706672,36.942478525838034,23.7371246706672,36.53277852583803,25.0855246706672,36.14827852583804C26.499724670667202,40.76407852583804,28.3543246706672,45.590378525838034,30.592524670667203,50.470778525838035C28.3252246706672,55.423278525838036,26.4441246706672,60.326678525838034,25.016224670667203,64.99707852583803C24.0797246706672,64.72777852583803,23.1499246706672,64.43547852583804,22.2277246706672,64.12037852583803C22.2277246706672,64.12037852583803,22.2277246706672,64.12037852583803,22.2277246706672,64.12037852583803ZM27.6909246706672,26.794678525838034C25.5675246706672,15.903078525838035,26.9777246706672,7.687078525838035,30.5267246706672,5.6249885258380345C34.306624670667205,3.4286885258380346,42.665324670667204,6.560128525838035,51.4755246706672,14.411578525838035C52.0500246706672,14.924678525838035,52.6152246706672,15.448278525838035,53.1708246706672,15.981878525838034C49.8879246706672,19.519978525838034,46.6442246706672,23.548078525838033,43.5454246706672,27.937178525838036C38.2313246706672,28.431478525838035,33.1445246706672,29.225278525838036,28.467724670667202,30.288878525838033C28.179624670667202,29.131078525838035,27.920624670667202,27.966078525838036,27.6909246706672,26.795078525838036C27.6909246706672,26.795078525838036,27.6909246706672,26.794678525838034,27.6909246706672,26.794678525838034ZM76.4301246706672,38.87387852583804C75.3254246706672,36.95887852583803,74.1798246706672,35.067978525838036,72.9940246706672,33.202378525838036C76.5991246706672,33.659978525838035,80.0533246706672,34.26737852583803,83.2969246706672,35.00977852583804C82.3232246706672,38.14257852583803,81.1095246706672,41.41757852583803,79.6808246706672,44.775378525838036C78.6364246706672,42.786678525838035,77.5527246706672,40.81917852583803,76.4301246706672,38.87387852583804C76.4301246706672,38.87387852583804,76.4301246706672,38.87387852583804,76.4301246706672,38.87387852583804ZM56.5543246706672,19.444278525838033C58.7806246706672,21.865178525838036,61.0104246706672,24.567778525838033,63.2035246706672,27.500378525838034C58.7545246706672,27.289478525838035,54.2981246706672,27.288578525838034,49.8490246706672,27.497678525838033C52.044424670667205,24.592178525838033,54.2932246706672,21.893078525838035,56.5543246706672,19.444278525838033ZM36.5510246706672,38.907178525838034C35.4424246706672,40.83667852583803,34.3789246706672,42.79197852583803,33.3612246706672,44.77137852583803C31.9559246706672,41.42547852583804,30.7532246706672,38.13547852583803,29.771124670667202,34.958378525838036C32.9949246706672,34.23457852583803,36.4327246706672,33.64277852583803,40.0149246706672,33.193578525838035C38.815824670667205,35.070478525838034,37.6609246706672,36.97537852583803,36.5510246706672,38.90667852583803C36.5510246706672,38.90667852583803,36.5510246706672,38.907178525838034,36.5510246706672,38.907178525838034ZM40.1177246706672,67.85697852583803C36.416824670667204,67.44227852583803,32.927324670667204,66.88107852583803,29.7045246706672,66.17667852583803C30.7020246706672,62.942978525838036,31.931224670667202,59.582878525838034,33.3670246706672,56.16527852583803C34.3886246706672,58.14617852583803,35.4566246706672,60.102578525838034,36.5700246706672,62.033078525838036C37.7149246706672,64.01757852583803,38.9004246706672,65.96137852583803,40.1177246706672,67.85697852583803ZM56.6876246706672,81.60267852583803C54.3995246706672,79.12557852583804,52.1177246706672,76.38477852583803,49.889224670667204,73.43717852583804C52.0528246706672,73.52227852583803,54.2583246706672,73.56567852583804,56.5000246706672,73.56567852583804C58.8031246706672,73.56567852583804,61.079724670667204,73.51377852583803,63.320524670667204,73.41367852583804C61.1203246706672,76.41447852583804,58.8989246706672,79.15917852583803,56.6876246706672,81.60267852583803ZM79.72622467066721,55.99077852583803C81.2366246706672,59.445978525838036,82.5095246706672,62.788378525838034,83.5202246706672,65.96677852583804C80.2444246706672,66.71717852583804,76.7073246706672,67.32137852583803,72.9803246706672,67.77007852583803C74.1746246706672,65.86997852583804,75.3310246706672,63.946178525838036,76.4490246706672,61.999878525838035C77.5857246706672,60.021478525838035,78.6784246706672,58.01797852583803,79.72622467066721,55.99077852583803C79.72622467066721,55.99077852583803,79.72622467066721,55.99077852583803,79.72622467066721,55.99077852583803ZM72.2680246706672,59.57937852583804C70.5564246706672,62.563478525838036,68.7486246706672,65.49087852583803,66.8475246706672,68.35707852583803C63.4037246706672,68.60187852583803,59.9524246706672,68.72347852583803,56.5000246706672,68.72167852583803C52.983624670667204,68.72167852583803,49.5635246706672,68.61177852583803,46.270024670667205,68.39737852583804C44.319224670667204,65.53787852583804,42.4769246706672,62.60527852583804,40.747124670667205,59.60597852583803C40.747124670667205,59.60597852583803,40.747524670667204,59.60597852583803,40.747524670667204,59.60597852583803C39.0258246706672,56.622478525838034,37.4177246706672,53.57447852583803,35.9265246706672,50.46857852583803C37.4139246706672,47.36187852583804,39.017224670667204,44.31247852583803,40.7330246706672,41.326678525838034C40.7330246706672,41.326678525838034,40.7325246706672,41.327178525838036,40.7325246706672,41.327178525838036C42.4477246706672,38.34067852583804,44.2752246706672,35.420678525838035,46.2113246706672,32.57337852583804C49.5714246706672,32.318178525838036,53.017224670667204,32.18537852583803,56.4996246706672,32.18537852583803C56.4996246706672,32.18537852583803,56.5000246706672,32.18537852583803,56.5000246706672,32.18537852583803C59.9983246706672,32.18537852583803,63.448524670667204,32.31957852583803,66.8078246706672,32.576478525838034C68.7242246706672,35.41947852583804,70.5401246706672,38.329478525838034,72.2521246706672,41.30097852583803C73.9736246706672,44.28017852583803,75.5981246706672,47.31467852583803,77.1230246706672,50.399878525838034C75.6138246706672,53.516578525838035,73.9944246706672,56.57837852583803,72.2680246706672,59.57937852583804C72.2680246706672,59.57937852583804,72.2680246706672,59.57937852583804,72.2680246706672,59.57937852583804ZM82.2253246706672,5.480578525838035C86.0087246706672,7.670688525838035,87.4802246706672,16.502378525838036,85.1030246706672,28.084178525838034C84.9511246706672,28.823078525838035,84.7808246706672,29.575678525838036,84.5954246706672,30.338978525838034C79.9072246706672,29.252778525838036,74.8169246706672,28.445278525838035,69.4873246706672,27.943378525838035C66.3827246706672,23.505978525838035,63.1656246706672,19.471778525838033,59.9361246706672,15.979278525838035C60.7825246706672,15.160378525838034,61.6490246706672,14.362778525838035,62.5349246706672,13.587178525838034C70.8768246706672,6.301428525838035,78.6731246706672,3.4246985258380347,82.2253246706672,5.480578525838035C82.2253246706672,5.480578525838035,82.2253246706672,5.480578525838035,82.2253246706672,5.480578525838035ZM56.5000246706672,40.22637852583804C62.0723246706672,40.22637852583804,66.5897246706672,44.76027852583803,66.5897246706672,50.35287852583804C66.5897246706672,55.94557852583804,62.0723246706672,60.47947852583803,56.5000246706672,60.47947852583803C50.9277246706672,60.47947852583803,46.4103246706672,55.94557852583804,46.4103246706672,50.35287852583804C46.4103246706672,44.76027852583803,50.9277246706672,40.22637852583804,56.5000246706672,40.22637852583804C56.5000246706672,40.22637852583804,56.5000246706672,40.22637852583804,56.5000246706672,40.22637852583804Z" fill="#00D8FF" fill-opacity="1"/></g></g></svg>