<svg xmlns="http://www.w3.org/2000/svg" xmlns:xlink="http://www.w3.org/1999/xlink" fill="none" version="1.1" width="117" height="87" viewBox="0 0 117 87"><defs><clipPath id="master_svg0_0_565"><rect x="0" y="0" width="117" height="87" rx="0"/></clipPath></defs><g clip-path="url(#master_svg0_0_565)"><g><path d="M100.6732468907833,50.07666429367065C96.6030468907833,50.097464293670654,93.0653468907833,51.069464293670656,90.1034468907833,52.506264293670654C89.01624689078331,50.372064293670654,87.92954689078331,48.470764293670655,87.73804689078331,47.076064293670655C87.52464689078332,45.449364293670655,87.2691468907833,44.45606429367066,87.52454689078331,42.51216429367065C87.78054689078331,40.56826429367065,88.93124689078331,37.800164293670655,88.90974689078331,37.58896429367066C88.88874689078331,37.377864293670655,88.65384689078331,36.38456429367066,86.3098468907833,36.363764293670656C83.96584689078331,36.34246429367065,81.94134689078331,36.80736429367065,81.70684689078331,37.41996429367065C81.47244689078332,38.03256429367065,81.02504689078332,39.42726429367065,80.72654689078331,40.863764293670656C80.32164689078331,42.97706429367065,76.03864689078331,50.519764293670654,73.5881468907833,54.47106429367066C72.79934689078331,52.929064293670656,72.11744689078331,51.576464293670654,71.96804689078331,50.49896429367065C71.7550468907833,48.87226429367065,71.49914689078331,47.878964293670656,71.7550468907833,45.935064293670656C72.01094689078332,43.99116429367066,73.1617468907833,41.22346429367065,73.14024689078332,41.011864293670655C73.11874689078331,40.80076429367065,72.8843468907833,39.807464293670655,70.54034689078331,39.786664293670654C68.19584689078332,39.76536429367066,66.17134689078331,40.23026429367066,65.9373468907833,40.84286429367065C65.70294689078331,41.455964293670654,65.44694689078331,42.89236429367065,64.9570468907833,44.28706429367065C64.46674689078331,45.68176429367065,58.77694689078331,58.27506429367065,57.28524689078331,61.52846429367065C56.68244689078331,62.845364293670656,56.05014689078331,64.14866429367066,55.38864689078331,65.43756429367066C55.38864689078331,65.43756429367066,55.367246890783306,65.50106429367065,55.30324689078331,65.60656429367066C55.09544689078331,66.01076429367066,54.88244689078331,66.41226429367066,54.66434689078331,66.81106429367065C54.66434689078331,66.81106429367065,54.66434689078331,66.83186429367065,54.66434689078331,66.83186429367065C54.34444689078331,67.40276429367066,54.00344689078331,67.93066429367066,53.83304689078331,67.93066429367066C53.70504689078331,67.93066429367066,53.47064689078331,66.40956429367066,53.87554689078331,64.33876429367065C54.72784689078331,59.965164293670654,56.75234689078331,53.16156429367066,56.73134689078331,52.929064293670656C56.73134689078331,52.80216429367066,57.11484689078331,51.619064293670654,55.41014689078331,51.006064293670654C53.74754689078331,50.39336429367066,53.15114689078331,51.40746429367066,53.00174689078331,51.40746429367066C52.85274689078331,51.40746429367066,52.74584689078331,51.76686429367066,52.74584689078331,51.76686429367066C52.74584689078331,51.76686429367066,54.60034689078331,44.118064293670656,49.20854689078331,44.118064293670656C45.84174689078331,44.118064293670656,41.19584689078331,47.773464293670656,38.89434689078331,51.069464293670656C36.27804689078331,52.48116429367065,33.66394689078331,53.89686429367065,31.05204689078331,55.31656429367065C29.79534689078331,56.013964293670654,28.49514689078331,56.71126429367065,27.28034689078331,57.366064293670654C27.19494689078331,57.281764293670655,27.10994689078331,57.17576429367065,27.02444689078331,57.091464293670654C20.50344689078331,50.182264293670656,8.44204689078331,45.30116429367065,8.95343689078331,36.02566429367065C9.145376890783309,32.644964293670654,10.31714689078331,23.770464293670653,32.11784689078331,12.994764293670654C50.06084689078331,4.225844293670654,64.33924689078331,6.6555042936706545,66.8111468907833,12.043564293670654C70.34844689078331,19.734964293670654,59.16084689078331,34.01836429367066,40.62044689078331,36.088664293670654C33.54554689078331,36.87076429367065,29.83734689078331,34.16606429367065,28.90004689078331,33.15196429367065C27.91974689078331,32.09526429367065,27.77034689078331,32.03186429367065,27.40784689078331,32.243464293670655C26.81144689078331,32.560664293670655,27.19494689078331,33.511264293670656,27.40784689078331,34.060464293670655C27.96224689078331,35.496864293670654,30.24224689078331,38.03256429367065,34.09944689078331,39.27956429367065C37.50914689078331,40.37796429367065,45.79884689078331,40.991064293670654,55.83604689078331,37.14536429367065C67.0666468907833,32.83476429367065,75.8466468907833,20.854664293670655,73.26824689078332,10.818364293670655C70.68934689078331,0.6339232936706543,53.64104689078331,-2.7255457063293456,37.50914689078331,2.9580042936706543C27.91974689078331,6.339224293670655,17.52004689078331,11.663464293670655,10.04019689078331,18.593964293670656C1.15367389078331,26.834064293670654,-0.25299710921669005,33.997064293670654,0.32237589078330997,36.99766429367065C2.38988689078331,47.64656429367066,17.20064689078331,54.57706429367065,23.12484689078331,59.71146429367065C22.82634689078331,59.880464293670656,22.54894689078331,60.02866429367065,22.31494689078331,60.155464293670654C19.35264689078331,61.61326429367065,8.058156890783309,67.46576429367066,5.24526689078331,73.65686429367065C2.04895689078331,80.67166429367066,5.75711689078331,85.70086429367065,8.20759689078331,86.37646429367065C15.81544689078331,88.46856429367065,23.63624689078331,84.70766429367066,27.83424689078331,78.49526429367066C32.03234689078331,72.28336429367066,31.52094689078331,64.21186429367066,29.58184689078331,60.51436429367065C29.56044689078331,60.472264293670655,29.53934689078331,60.429664293670655,29.49644689078331,60.387464293670654C30.26374689078331,59.94386429367066,31.05204689078331,59.47896429367066,31.81934689078331,59.03536429367065C33.22964689078331,58.208764293670654,34.65784689078331,57.41266429367065,36.10294689078331,56.64746429367065C35.37814689078331,58.612664293670655,34.84524689078331,60.957964293670656,34.58974689078331,64.33876429367065C34.26984689078331,68.31126429367066,35.91054689078331,73.46646429367065,38.06304689078331,75.49466429367065C39.02234689078331,76.38286429367065,40.15154689078331,76.40366429367066,40.87634689078331,76.40366429367066C43.39084689078331,76.40366429367066,44.52054689078331,74.33286429367065,45.77784689078331,71.88196429367065C47.31194689078331,68.88176429367066,48.69714689078331,65.39546429367066,48.69714689078331,65.39546429367066C48.69714689078331,65.39546429367066,46.97104689078331,74.81906429367065,51.65944689078331,74.81906429367065C53.36414689078331,74.81906429367065,55.09024689078331,72.62146429367066,55.85754689078331,71.50176429367066C55.85754689078331,71.50176429367066,55.85754689078331,71.52256429367065,55.85754689078331,71.52256429367065C55.85754689078331,71.52256429367065,55.90004689078331,71.45916429367065,55.98554689078331,71.31146429367065C56.15604689078331,71.03686429367066,56.26244689078331,70.86736429367066,56.26244689078331,70.86736429367066C56.26244689078331,70.86736429367066,56.26244689078331,70.82566429367066,56.26244689078331,70.82566429367066C56.94434689078331,69.64216429367066,58.47894689078331,66.95876429367065,60.75894689078331,62.50046429367065C63.69984689078331,56.75346429367065,66.53424689078331,49.56956429367065,66.53424689078331,49.56956429367065C66.53424689078331,49.56956429367065,66.7901468907833,51.32316429367066,67.6634468907833,54.23906429367065C68.17534689078332,55.95056429367065,69.24014689078331,57.830964293670654,70.09294689078331,59.647964293670654C69.41104689078331,60.599164293670654,68.98464689078331,61.12696429367065,68.98464689078331,61.12696429367065C68.98464689078331,61.12696429367065,69.00614689078331,61.14826429367066,69.00614689078331,61.14826429367066C68.45184689078332,61.86646429367065,67.85544689078331,62.64816429367065,67.19454689078331,63.409364293670656C64.87164689078331,66.15576429367066,62.10164689078331,69.30456429367065,61.71774689078331,70.21266429367066C61.26994689078331,71.29016429367066,61.37684689078331,72.07226429367066,62.22964689078331,72.70616429367065C62.84754689078331,73.17106429367065,63.95534689078331,73.23406429367066,65.0850468907833,73.17106429367065C67.17354689078331,73.02286429367065,68.6437468907833,72.51586429367066,69.36814689078331,72.19916429367065C70.49784689078331,71.79766429367065,71.81904689078331,71.18456429367066,73.05484689078331,70.27606429367066C75.33524689078331,68.60676429367065,76.72004689078331,66.21926429367065,76.59254689078331,63.071364293670655C76.5285468907833,61.338664293670654,75.95314689078332,59.605864293670656,75.2498468907833,57.978664293670654C75.46324689078331,57.68326429367065,75.65474689078331,57.38736429367066,75.86814689078331,57.091464293670654C79.46934689078331,51.87236429367066,82.26124689078331,46.146264293670654,82.26124689078331,46.146264293670654C82.26124689078331,46.146264293670654,82.51714689078331,47.89986429367065,83.39054689078331,50.81616429367065C83.81684689078331,52.29516429367065,84.69064689078331,53.90106429367066,85.4575468907833,55.46426429367065C82.0692468907833,58.19026429367065,79.98074689078331,61.359464293670655,79.2349468907833,63.43026429367065C77.89264689078331,67.27596429367065,78.93644689078332,69.00816429367066,80.9185468907833,69.40966429367066C81.81334689078331,69.59996429367065,83.09204689078331,69.17726429367066,84.0298468907833,68.77576429367065C85.22314689078331,68.39556429367066,86.62974689078331,67.74086429367065,87.97244689078332,66.76846429367066C90.2529468907833,65.09956429367065,92.44744689078331,62.77506429367065,92.31954689078331,59.62716429367065C92.25554689078331,58.19026429367065,91.87214689078331,56.774264293670655,91.33924689078331,55.40086429367065C94.2161468907833,54.21826429367066,97.92424689078331,53.56296429367065,102.6552468907833,54.11216429367065C112.79924689078331,55.295264293670655,114.80224689078331,61.57066429367065,114.41824689078331,64.21236429367066C114.03424689078331,66.85316429367066,111.90324689078331,68.29006429367065,111.20124689078331,68.73366429367066C110.49724689078332,69.17766429367066,110.26324689078331,69.32536429367066,110.32724689078331,69.64216429367066C110.41224689078331,70.10706429367066,110.75324689078332,70.08616429367065,111.35024689078331,70.00146429367065C112.18124689078331,69.85376429367065,116.67724689078331,67.86726429367066,116.86924689078332,63.00746429367065C117.18924689078331,56.79556429367065,111.22224689078331,50.01326429367065,100.6732468907833,50.07666429367065C100.6732468907833,50.07666429367065,100.6732468907833,50.07666429367065,100.6732468907833,50.07666429367065ZM22.42144689078331,76.23466429367065C19.05424689078331,79.86876429367065,14.36624689078331,81.24216429367065,12.34164689078331,80.08036429367066C10.16816689078331,78.83336429367066,11.02044689078331,73.46646429367065,15.15454689078331,69.62126429367065C17.66904689078331,67.27596429367065,20.90834689078331,65.09906429367065,23.06084689078331,63.768264293670654C23.55074689078331,63.47236429367065,24.27554689078331,63.05006429367065,25.14934689078331,62.52176429367066C25.29834689078331,62.436964293670655,25.38384689078331,62.39486429367066,25.38384689078331,62.39486429367066C25.38384689078331,62.39486429367066,25.89514689078331,62.07766429367065,25.89514689078331,62.07766429367065C27.40784689078331,67.57136429367065,25.95914689078331,72.41026429367065,22.42144689078331,76.23466429367065C22.42144689078331,76.23466429367065,22.42144689078331,76.23466429367065,22.42144689078331,76.23466429367065ZM46.92854689078331,59.71146429367065C45.75634689078331,62.54306429367065,43.30584689078331,69.79026429367066,41.81414689078331,69.38886429367065C40.53544689078331,69.05076429367065,39.74664689078331,63.55716429367065,41.55824689078331,58.12686429367066C42.47454689078331,55.40086429367065,44.41364689078331,52.146964293670656,45.54334689078331,50.879564293670654C47.37594689078331,48.85096429367066,49.40054689078331,48.17446429367065,49.89044689078331,48.99916429367065C50.50874689078331,50.07666429367065,47.65294689078331,57.936564293670656,46.92854689078331,59.71146429367065C46.92854689078331,59.71146429367065,46.92854689078331,59.71146429367065,46.92854689078331,59.71146429367065ZM67.15204689078331,69.30406429367065C66.6617468907833,69.55786429367065,66.19324689078331,69.72686429367066,65.9798468907833,69.59996429367065C65.8308468907833,69.51526429367065,66.19324689078331,69.17726429367066,66.19324689078331,69.17726429367066C66.19324689078331,69.17726429367066,68.72924689078332,66.47296429367066,69.73054689078332,65.24726429367065C70.30634689078332,64.52906429367066,70.98774689078331,63.683964293670655,71.71254689078332,62.73286429367065C71.71254689078332,62.73286429367065,71.71254689078332,63.00746429367065,71.71254689078332,63.00746429367065C71.71254689078332,66.24056429367066,68.55824689078331,68.41686429367066,67.15164689078331,69.30406429367065C67.15164689078331,69.30406429367065,67.15204689078331,69.30406429367065,67.15204689078331,69.30406429367065ZM82.7511468907833,65.77566429367066C82.38874689078331,65.52186429367066,82.45274689078332,64.67676429367066,83.66744689078331,62.03556429367065C84.13634689078332,61.00016429367066,85.24414689078331,59.267864293670655,87.1411468907833,57.598564293670655C87.35414689078331,58.27456429367066,87.50354689078331,58.92976429367065,87.48214689078331,59.542464293670655C87.46064689078331,63.620564293670654,84.52024689078331,65.14166429367066,82.7511468907833,65.77566429367066Z" fill="#CD6799" fill-opacity="1"/></g></g></svg>