<svg xmlns="http://www.w3.org/2000/svg" xmlns:xlink="http://www.w3.org/1999/xlink" fill="none" version="1.1" width="120" height="120" viewBox="0 0 120 120"><defs><clipPath id="master_svg0_0_598"><rect x="0" y="0" width="120" height="120" rx="0"/></clipPath></defs><g clip-path="url(#master_svg0_0_598)"><g><path d="M67.36502909240723,119.74550001251697C65.80122909240723,119.47150001251697,64.18122909240722,118.72850001251697,63.26252909240723,117.90750001251698C62.63882909240723,117.25350001251698,62.28292909240723,116.38850001251697,62.265029092407225,115.48550001251698C62.265029092407225,114.56650001251697,62.73372909240722,113.27650001251698,63.47622909240722,111.99050001251697C63.926229092407226,111.26650001251697,64.27872909240722,110.48650001251697,64.53002909240723,109.66550001251697C64.68752909240723,109.09850001251698,65.01752909240723,108.18050001251697,65.27252909240723,107.59550001251698C65.27252909240723,107.59550001251698,65.72252909240723,106.52250001251697,65.72252909240723,106.52250001251697C65.72252909240723,106.52250001251697,65.83872909240722,99.35630001251698,65.83872909240722,99.35630001251698C65.89872909240722,95.39250001251698,66.01502909240722,91.72130001251698,66.11252909240723,91.15130001251697C66.36752909240722,89.50870001251698,66.79502909240722,87.90750001251698,67.36122909240723,86.34750001251697C67.36122909240723,86.34750001251697,67.79252909240722,85.31250001251698,67.79252909240722,85.31250001251698C67.79252909240722,85.31250001251698,67.16622909240724,84.94130001251698,67.16622909240724,84.94130001251698C66.60002909240723,84.58880001251697,66.13122909240722,84.10130001251697,64.27502909240722,81.89250001251698C61.991229092407224,79.19620001251698,58.98372909240722,77.71120001251697,54.723729092407225,77.20500001251698C53.33622909240723,77.07000001251697,51.930029092407224,76.96880001251698,50.52372909240723,76.91250001251697C44.272529092407225,76.62000001251698,40.69872909240723,75.31130001251698,37.477529092407224,72.14630001251697C35.07372909240723,69.78380001251698,33.82502909240723,67.02750001251698,33.318729092407224,62.966300012516975C32.63622909240723,57.47630001251697,31.875029092407228,54.66380001251697,30.468729092407226,52.38000001251697C30.122129092407228,51.81600001251697,29.722829092407228,51.286100012516975,29.276229092407227,50.79750001251698C29.276229092407227,50.79750001251698,28.710029092407225,50.231300012516975,28.710029092407225,50.231300012516975C28.710029092407225,50.231300012516975,27.461229092407226,51.03380001251698,27.461229092407226,51.03380001251698C26.778729092407225,51.48380001251697,25.818729092407228,52.050000012516975,25.350029092407226,52.30500001251698C23.786229092407225,53.16380001251697,22.301229092407226,54.120000012516975,20.87622909240723,55.15500001251698C17.381249092407227,57.693800012516974,13.571249092407227,60.877500012516975,11.482499092407227,62.966300012516975C10.544999092407227,63.903800012516975,10.057501092407227,64.31250001251698,9.840001092407226,64.27500001251697C8.415001092407227,64.06130001251697,9.506250092407226,57.88870001251698,11.831249092407226,53.238800012516975C14.801249092407225,47.24250001251698,19.80002909240723,41.715000012516974,25.582529092407228,37.98380001251697C30.330029092407226,34.916200012516974,38.006229092407224,30.697500012516976,41.55752909240723,29.212500012516976C47.86502909240723,26.576300012516974,56.028729092407225,23.722500012516974,61.616229092407224,22.200000012516977C62.790029092407224,21.866300012516977,63.51002909240723,21.573800012516976,63.99752909240723,21.243800012516974C65.09252909240723,20.482500012516976,66.16502909240722,20.111300012516974,67.39502909240723,20.092500012516975C68.43002909240722,20.073800012516976,68.52752909240724,20.055000012516974,69.52502909240722,19.387500012516977C70.69872909240723,18.626300012516975,71.04752909240722,18.585000012516975,72.22122909240723,18.997500012516976C72.22122909240723,18.997500012516976,72.98252909240722,19.271300012516974,72.98252909240722,19.271300012516974C72.98252909240722,19.271300012516974,73.92002909240723,18.626300012516975,73.92002909240723,18.626300012516975C73.92002909240723,18.626300012516975,74.85752909240723,18.000000012516974,74.85752909240723,18.000000012516974C74.85752909240723,18.000000012516974,76.20372909240723,18.018800012516976,76.20372909240723,18.018800012516976C77.23872909240723,18.037500012516976,77.70752909240723,18.000000012516974,78.15752909240723,17.805000012516974C78.72372909240723,17.550000012516975,78.74252909240722,17.512500012516977,78.90002909240722,16.575000012516977C79.25252909240723,14.542500012516975,79.29002909240722,13.526300012516975,79.07622909240723,12.296300012516975C78.80252909240723,10.676300012516975,78.76502909240723,4.387500012516975,79.03872909240722,3.1537500125169755C79.33122909240723,1.8262500125169754,79.52622909240722,1.5525000125169754,80.52372909240722,1.0650000125169754C82.00872909240722,0.3412500125169754,83.12252909240722,0.1275000125169754,85.68002909240722,0.1275000125169754C88.80372909240722,0.1275000125169754,90.38622909240722,0.5587500125169754,91.56002909240722,1.6912500125169754C92.61372909240723,2.7075000125169755,92.79002909240722,5.088750012516975,92.24252909240722,10.676300012516975C91.90872909240723,13.897500012516975,91.87122909240723,14.797500012516975,91.96872909240723,16.905000012516975C92.00622909240722,18.251300012516975,92.10372909240722,19.522500012516975,92.14502909240723,19.698800012516976C92.22372909240723,20.032500012516977,92.30252909240723,20.051300012516975,93.43502909240722,20.070000012516974C94.54872909240723,20.088800012516977,94.74372909240722,20.148800012516975,95.79752909240723,20.696300012516975C96.81372909240723,21.225000012516976,97.57502909240722,21.870000012516975,97.73252909240723,22.338800012516977C97.75122909240723,22.436300012516977,97.92752909240723,22.436300012516977,98.23872909240723,22.338800012516977C98.84252909240723,22.162500012516976,99.37122909240723,22.357500012516976,99.80252909240723,22.886300012516976C100.05752909240722,23.220000012516977,100.21122909240722,23.276300012516977,100.80002909240723,23.276300012516977C101.60252909240722,23.276300012516977,101.89502909240723,23.471300012516977,102.55872909240723,24.450000012516977C102.86922909240722,24.889300012516976,103.29482909240723,25.234400012516975,103.78872909240722,25.447500012516976C104.88372909240722,25.995000012516975,106.36872909240722,27.517500012516976,106.93502909240722,28.728800012516974C107.81252909240723,30.525000012516976,107.98872909240723,32.61370001251697,107.44122909240723,34.48870001251697C107.24622909240723,35.19370001251698,107.24622909240723,35.212500012516976,107.65502909240723,35.895000012516974C108.51372909240723,37.361200012516974,108.82872909240723,39.15750001251698,108.47622909240722,40.68000001251698C108.47622909240722,40.68000001251698,108.28122909240723,41.580000012516976,108.28122909240723,41.580000012516976C108.28122909240723,41.580000012516976,108.86622909240722,42.16500001251698,108.86622909240722,42.16500001251698C111.77592909240722,45.07500001251697,111.34492909240723,49.822500012516976,107.79372909240723,54.06000001251697C107.39682909240723,54.544000012516975,107.06172909240723,55.07560001251697,106.79622909240723,55.642500012516976C106.11372909240723,57.457500012516974,105.33002909240723,58.72880001251698,104.31752909240723,59.78250001251698C104.31752909240723,59.78250001251698,103.28252909240723,60.83630001251697,103.28252909240723,60.83630001251697C103.28252909240723,60.83630001251697,102.22872909240722,60.83630001251697,102.22872909240722,60.83630001251697C101.17502909240723,60.83630001251697,99.69002909240723,60.48380001251697,98.79002909240722,60.01500001251698C98.41872909240723,59.82000001251698,98.40002909240722,59.82000001251698,98.47872909240722,60.05250001251697C98.71502909240722,60.911300012516975,99.30002909240723,64.40630001251698,99.49502909240722,66.34130001251698C99.80622909240722,69.31130001251698,99.70872909240722,73.62750001251698,99.30002909240723,75.48380001251698C99.00122909240723,76.85860001251697,98.50082909240723,78.18160001251698,97.81502909240723,79.41000001251697C97.42502909240723,80.03630001251697,97.40622909240723,80.17130001251698,97.48122909240723,80.93250001251698C97.59752909240723,82.00500001251697,97.34622909240723,83.80500001251697,96.91502909240722,84.99380001251697C96.38622909240722,86.38130001251697,96.19122909240723,87.02630001251697,96.07502909240722,87.72750001251697C95.97752909240722,88.33130001251698,95.97752909240722,88.33130001251698,96.40872909240723,88.33130001251698C96.97502909240723,88.33130001251698,97.28622909240723,88.66500001251697,97.28622909240723,89.32870001251698C97.28622909240723,89.62130001251697,97.03122909240723,91.20380001251698,96.72002909240723,92.82380001251697C95.86122909240723,97.37630001251698,95.80122909240723,97.88250001251697,95.80122909240723,102.29650001251697C95.78252909240723,106.84850001251698,95.78252909240723,106.80750001251698,96.81752909240723,107.49050001251697C96.81752909240723,107.49050001251697,99.14252909240723,108.99350001251698,99.14252909240723,108.99350001251698C101.14272909240722,110.32150001251698,103.28472909240723,111.42150001251697,105.52872909240723,112.27550001251697C108.79122909240722,113.56550001251698,109.24092909240723,113.89550001251698,109.24092909240723,114.99050001251697C109.24092909240723,115.47750001251697,109.14372909240723,115.65350001251697,108.73502909240723,116.04350001251697C107.48622909240723,117.25550001251698,105.02252909240723,117.52850001251697,100.06122909240723,117.00050001251698C97.48322909240723,116.75850001251698,94.89552909240723,116.63450001251698,92.30622909240722,116.62850001251698C85.47002909240723,116.53150001251697,84.47252909240723,116.29550001251698,83.57622909240723,114.59650001251697C83.07002909240722,113.62150001251698,83.16752909240722,112.35050001251697,83.86872909240722,110.26150001251698C84.18002909240722,109.34250001251698,84.45372909240723,108.40550001251698,84.69002909240723,107.44850001251697C85.15872909240723,105.18350001251697,84.84752909240723,102.48750001251697,83.75252909240723,99.44250001251697C83.75252909240723,99.44250001251697,82.81502909240723,96.84380001251698,82.81502909240723,96.84380001251698C81.89622909240722,94.20750001251697,81.39002909240723,89.38130001251697,81.93752909240723,88.29000001251697C82.03502909240723,88.07630001251698,82.21122909240722,88.03500001251697,82.68002909240722,88.05380001251697C82.68002909240722,88.05380001251697,83.26502909240723,88.11380001251698,83.26502909240723,88.11380001251698C83.26502909240723,88.11380001251698,83.75252909240723,87.09750001251697,83.75252909240723,87.09750001251697C84.12372909240723,86.29500001251698,84.53252909240723,85.77000001251697,85.64622909240722,84.65630001251698C85.64622909240722,84.65630001251698,87.07122909240722,83.23130001251698,87.07122909240722,83.23130001251698C87.07122909240722,83.23130001251698,86.99252909240722,82.31250001251698,86.99252909240722,82.31250001251698C86.93252909240722,81.43500001251698,85.78122909240723,77.17500001251697,85.62372909240723,77.19380001251697C85.56372909240723,77.19380001251697,85.25252909240723,77.62500001251698,84.90002909240722,78.16880001251698C84.04122909240722,79.45880001251697,82.14752909240723,81.45000001251698,81.07122909240722,82.17380001251698C80.60252909240722,82.48500001251698,80.21252909240722,82.85630001251698,80.21252909240722,82.97630001251697C80.19372909240722,83.50500001251697,79.74372909240722,84.54000001251697,79.19622909240722,85.26000001251697C78.66752909240722,85.96500001251698,78.63002909240723,86.08130001251698,78.70872909240722,86.70380001251698C78.84372909240723,87.62250001251698,78.55122909240723,90.57000001251697,78.20252909240723,92.11500001251697C77.88632909240722,93.26220001251697,77.45412909240723,94.37420001251698,76.91252909240723,95.43380001251697C75.56622909240723,98.22750001251697,74.55002909240723,100.72550001251697,74.29502909240723,101.88050001251698C74.11082909240723,102.99250001251697,73.99312909240723,104.11350001251698,73.94252909240723,105.24050001251697C73.88252909240722,106.56750001251697,73.74752909240722,107.85750001251698,73.65002909240722,108.13150001251698C73.51502909240723,108.50250001251698,73.51502909240723,108.79550001251698,73.63122909240722,109.36150001251697C73.72872909240722,109.77050001251698,73.78872909240722,110.68850001251698,73.76622909240723,111.41250001251697C73.74752909240722,112.41050001251698,73.82622909240723,113.05550001251697,74.11872909240722,114.22550001251697C74.62502909240723,116.21650001251697,74.72252909240723,117.46850001251697,74.49002909240723,118.21150001251698C74.33252909240723,118.68050001251697,74.17872909240722,118.85650001251697,73.65002909240722,119.11150001251697C72.47622909240722,119.71550001251697,69.15752909240723,120.04850001251698,67.36122909240723,119.73750001251697C67.36122909240723,119.73750001251697,67.36502909240723,119.74550001251697,67.36502909240723,119.74550001251697ZM72.10872909240723,118.14350001251698C72.79122909240724,117.94850001251697,73.38002909240723,117.36350001251698,73.38002909240723,116.83550001251697C73.38002909240723,116.59850001251698,73.18502909240723,115.91650001251698,72.94872909240723,115.31250001251698C72.48002909240722,114.16150001251698,71.67752909240723,111.11250001251697,71.67752909240723,110.60650001251697C71.67752909240723,110.35150001251698,71.69622909240724,110.33250001251697,72.08622909240722,110.54650001251697C72.08622909240722,110.54650001251697,72.51752909240723,110.78250001251698,72.51752909240723,110.78250001251698C72.51752909240723,110.78250001251698,72.51752909240723,110.23550001251698,72.51752909240723,110.23550001251698C72.45492909240723,109.73050001251697,72.34312909240722,109.23250001251698,72.18372909240722,108.75050001251698C71.81252909240723,107.63650001251698,71.77502909240722,107.61750001251697,69.40872909240723,107.47850001251697C69.40872909240723,107.47850001251697,67.80752909240724,107.40050001251697,67.80752909240724,107.40050001251697C67.80752909240724,107.40050001251697,67.22252909240723,107.96650001251697,67.22252909240723,107.96650001251697C66.90082909240724,108.29750001251698,66.61892909240723,108.66450001251698,66.38252909240722,109.06150001251697C66.12752909240723,109.56750001251697,66.03002909240723,110.33250001251697,66.18752909240723,110.50550001251698C66.22502909240723,110.56550001251698,66.61872909240722,110.50550001251698,67.04622909240723,110.40750001251698C67.30002909240723,110.33150001251697,67.56182909240724,110.28650001251698,67.82622909240723,110.27250001251697C67.82622909240723,110.29150001251698,67.39502909240723,110.64350001251698,66.85122909240722,111.01550001251698C64.50752909240722,112.77350001251698,63.686229092407224,113.84650001251697,63.686229092407224,115.21550001251697C63.686229092407224,116.64050001251698,65.03252909240723,117.75350001251698,67.14372909240723,118.08750001251697C68.58752909240722,118.30150001251698,71.40002909240722,118.36150001251697,72.10502909240722,118.14750001251697C72.10502909240722,118.14750001251697,72.10872909240723,118.14350001251698,72.10872909240723,118.14350001251698ZM103.88622909240722,115.81850001251698C104.47122909240723,115.11350001251698,104.39252909240723,114.39350001251698,103.65002909240722,113.57250001251697C103.21872909240723,113.14150001251697,102.73122909240723,112.77050001251698,102.18372909240723,112.47750001251697C101.63622909240722,112.18550001251698,101.08872909240722,111.85150001251698,100.54122909240722,111.50250001251698C99.55102909240723,110.86050001251698,98.53382909240723,110.26150001251698,97.49252909240722,109.70650001251697C96.59252909240723,109.21850001251697,95.71502909240722,108.70850001251698,94.85622909240723,108.16550001251697C94.85622909240723,108.16550001251697,94.50372909240723,107.89150001251697,94.50372909240723,107.89150001251697C94.50372909240723,107.89150001251697,94.50372909240723,102.52150001251698,94.50372909240723,102.52150001251698C94.50372909240723,97.23000001251698,94.48502909240723,97.15130001251697,94.21122909240722,97.23000001251698C92.84252909240723,97.60130001251697,90.57752909240723,97.77750001251698,87.70872909240722,97.71750001251698C87.70872909240722,97.71750001251698,84.60372909240722,97.68000001251697,84.60372909240722,97.68000001251697C84.60372909240722,97.68000001251697,85.05372909240722,98.77500001251697,85.05372909240722,98.77500001251697C85.89372909240723,100.84550001251698,86.32502909240722,103.62050001251697,86.32502909240722,106.80350001251698C86.32502909240722,107.99650001251698,86.24622909240723,108.42350001251698,85.95372909240723,109.26350001251697C85.79622909240723,109.67250001251698,85.66122909240723,110.08550001251697,85.52252909240723,110.49350001251698C85.46252909240722,110.67050001251698,85.68002909240722,110.80550001251697,86.47872909240722,111.04150001251698C87.06372909240723,111.21750001251698,87.92252909240723,111.39350001251698,88.41372909240722,111.45050001251697C88.41372909240722,111.45050001251697,89.31372909240723,111.54750001251698,89.31372909240723,111.54750001251698C89.31372909240723,111.54750001251698,89.21622909240723,112.44750001251697,89.21622909240723,112.44750001251697C89.11872909240722,113.46350001251697,89.23502909240723,114.53650001251698,89.49002909240723,114.87050001251697C89.64752909240723,115.06550001251698,90.23252909240723,115.14350001251698,92.94752909240722,115.26050001251697C94.99872909240723,115.35750001251698,97.22622909240722,115.57150001251698,98.98122909240723,115.82650001251697C100.50372909240723,116.06250001251698,102.14622909240722,116.25750001251697,102.63372909240722,116.25750001251697C103.45502909240723,116.27650001251698,103.53372909240723,116.23850001251698,103.88252909240722,115.82650001251697C103.88252909240722,115.82650001251697,103.88622909240722,115.81850001251698,103.88622909240722,115.81850001251698ZM72.61872909240722,106.68050001251697C72.69752909240722,106.62050001251697,72.81372909240723,105.56650001251697,72.85502909240722,104.31750001251697C73.01252909240722,100.82250001251697,73.14752909240723,100.31250001251698,74.90622909240723,96.36750001251697C76.35002909240723,93.14630001251697,77.11502909240723,90.13880001251698,77.05502909240722,88.00880001251697C77.05502909240722,88.00880001251697,77.01752909240723,86.73750001251697,77.01752909240723,86.73750001251697C77.01752909240723,86.73750001251697,76.47002909240723,87.26630001251698,76.47002909240723,87.26630001251698C75.33752909240722,88.39880001251697,76.11752909240722,86.62130001251697,77.46752909240723,85.03880001251697C78.48372909240723,83.82750001251698,78.83622909240722,83.16380001251697,78.99002909240723,82.09130001251698C79.06872909240722,81.66000001251697,79.22622909240722,81.44630001251697,79.89002909240723,80.94000001251698C82.37352909240722,79.06390001251698,84.28712909240723,76.53490001251697,85.41752909240722,73.63500001251697C85.69122909240723,72.93000001251697,86.39252909240723,70.53000001251698,86.98122909240723,68.30250001251697C88.07622909240723,64.18130001251697,88.66122909240723,62.403800012516975,89.19002909240723,61.642500012516976C89.38502909240722,61.35000001251697,89.46372909240722,61.29000001251698,89.42622909240723,61.48500001251698C89.14302909240723,62.53240001251697,88.92142909240722,63.59550001251698,88.76252909240722,64.66880001251698C88.60502909240722,65.62500001251698,88.31252909240723,67.50000001251698,88.11752909240722,68.80880001251697C87.74622909240723,71.48630001251698,87.35622909240723,73.20380001251698,86.82752909240723,74.53130001251698C86.82752909240723,74.53130001251698,86.47502909240723,75.43130001251697,86.47502909240723,75.43130001251697C86.47502909240723,75.43130001251697,87.41252909240723,77.85370001251698,87.41252909240723,77.85370001251698C88.38752909240722,80.33250001251697,88.83752909240722,82.13250001251697,88.91622909240722,83.86880001251697C88.91622909240722,83.86880001251697,88.97622909240722,84.84380001251698,88.97622909240722,84.84380001251698C88.97622909240722,84.84380001251698,88.21502909240722,85.00130001251698,88.21502909240722,85.00130001251698C87.21022909240723,85.17910001251697,86.31362909240723,85.73960001251697,85.71372909240722,86.56500001251698C85.05002909240723,87.52130001251697,84.67872909240722,88.30500001251697,84.85502909240722,88.47750001251697C84.93372909240723,88.55630001251697,85.89002909240723,88.73250001251698,86.98502909240723,88.86750001251697C88.68372909240723,89.06250001251698,89.32872909240723,89.06250001251698,91.57502909240722,88.92750001251697C92.55002909240723,88.89000001251698,93.51002909240722,88.79250001251698,94.46622909240723,88.65380001251698C94.68002909240722,88.57500001251698,94.89752909240723,88.14750001251697,95.24622909240723,87.03370001251697C96.04872909240723,84.47630001251697,96.20252909240723,83.57630001251698,96.10502909240722,81.78000001251698C96.10502909240722,81.78000001251698,96.02622909240722,80.19750001251697,96.02622909240722,80.19750001251697C96.02622909240722,80.19750001251697,96.43502909240722,79.66880001251698,96.43502909240722,79.66880001251698C97.39122909240723,78.45750001251697,98.13372909240722,76.27130001251697,98.44502909240722,73.71000001251697C98.81622909240723,70.58630001251697,98.13372909240722,64.04250001251697,96.86252909240723,58.417500012516975C96.25872909240722,55.74000001251697,96.00372909240723,54.138800012516974,96.00372909240723,52.96880001251697C96.00372909240723,52.96880001251697,96.00372909240723,51.933800012516976,96.00372909240723,51.933800012516976C96.00372909240723,51.933800012516976,95.04752909240723,52.03130001251697,95.04752909240723,52.03130001251697C91.60872909240723,52.402500012516974,87.45002909240722,52.30500001251698,84.91122909240723,51.77630001251698C83.52372909240722,51.502500012516975,80.02872909240723,50.46750001251698,79.26752909240723,50.13380001251698C79.26752909240723,50.13380001251698,78.66372909240722,49.86000001251698,78.66372909240722,49.86000001251698C78.66372909240722,49.86000001251698,78.58502909240723,50.542500012516975,78.58502909240723,50.542500012516975C78.52502909240722,50.91380001251697,78.46872909240723,51.285000012516974,78.39002909240723,51.675000012516975C78.27372909240722,52.083800012516974,78.31122909240723,52.18130001251698,79.03502909240723,52.886300012516976C79.93502909240722,53.80500001251698,80.20872909240722,54.27380001251697,80.20872909240722,54.896300012516974C80.20872909240722,55.286300012516975,79.99502909240722,55.60130001251697,78.90002909240722,56.73380001251697C78.11492909240722,57.57150001251698,77.24382909240722,58.324400012516975,76.30122909240723,58.980000012516975C76.30122909240723,58.980000012516975,75.03002909240723,59.83880001251698,75.03002909240723,59.83880001251698C75.03002909240723,59.83880001251698,74.48252909240723,61.73250001251697,74.48252909240723,61.73250001251697C72.52872909240722,68.66620001251698,72.15752909240723,74.97380001251697,73.44752909240722,79.48500001251698C73.44752909240722,79.48500001251698,73.75872909240722,80.61750001251697,73.75872909240722,80.61750001251697C73.75872909240722,80.61750001251697,73.13252909240722,81.39750001251697,73.13252909240722,81.39750001251697C70.78872909240722,84.34500001251698,69.40122909240722,86.59130001251698,69.18752909240723,87.84380001251698C69.06252909240723,88.46050001251697,68.91872909240723,89.07330001251698,68.75622909240722,89.68130001251697C68.25002909240723,91.61630001251697,67.85622909240723,94.44750001251697,67.68372909240722,97.51500001251698C67.56352909240724,100.08300001251698,67.39472909240723,102.64850001251698,67.17752909240723,105.21050001251697C67.17752909240723,105.21050001251697,67.08002909240723,105.97150001251697,67.08002909240723,105.97150001251697C67.08002909240723,105.97150001251697,68.05502909240722,106.26350001251697,68.05502909240722,106.26350001251697C68.60252909240722,106.44050001251698,69.42372909240723,106.63550001251697,69.89252909240723,106.71350001251697C70.77002909240723,106.84850001251698,72.39372909240723,106.81150001251697,72.64502909240723,106.67650001251698C72.64502909240723,106.67650001251698,72.61872909240722,106.68050001251697,72.61872909240722,106.68050001251697ZM91.58252909240723,95.93630001251698C93.10502909240722,95.83880001251697,94.49252909240722,95.60250001251697,94.76622909240723,95.37000001251698C94.88252909240722,95.29120001251698,95.02122909240722,94.88250001251697,95.05872909240723,94.47000001251698C95.05872909240723,94.47000001251698,95.15622909240723,93.72750001251697,95.15622909240723,93.72750001251697C95.15622909240723,93.72750001251697,93.94502909240722,94.00130001251698,93.94502909240722,94.00130001251698C92.98872909240723,94.19630001251697,92.03252909240723,94.31250001251698,91.07252909240722,94.39130001251698C88.76622909240723,94.48880001251698,86.44502909240722,94.42880001251697,84.15752909240723,94.19630001251697C83.39622909240722,94.08000001251698,83.39622909240722,94.08000001251698,83.62872909240723,95.07380001251697C83.82372909240722,95.81630001251698,83.86502909240723,95.85380001251697,85.85622909240723,95.99250001251697C87.18372909240723,96.10880001251698,89.04002909240722,96.09000001251698,91.57872909240723,95.93250001251698C91.57872909240723,95.93250001251698,91.58252909240723,95.93630001251698,91.58252909240723,95.93630001251698ZM90.31122909240723,92.53880001251697C92.30252909240723,92.36250001251697,94.78502909240723,91.93500001251698,95.27252909240723,91.68000001251697C95.43002909240722,91.60130001251697,95.56502909240723,91.30880001251697,95.62502909240723,90.97500001251697C95.62502909240723,90.97500001251697,95.80122909240723,89.94000001251698,95.80122909240723,89.94000001251698C95.80122909240723,89.94000001251698,95.89872909240722,89.45250001251698,95.89872909240722,89.45250001251698C95.89872909240722,89.45250001251698,95.41122909240723,89.55000001251697,95.41122909240723,89.55000001251697C93.24372909240722,90.00000001251698,91.60122909240722,90.13500001251697,88.32002909240722,90.13500001251697C85.11752909240722,90.13500001251697,84.74622909240723,90.11630001251697,83.90622909240723,89.82380001251697C83.58342909240723,89.68770001251697,83.23972909240723,89.60780001251698,82.89002909240723,89.58750001251697C82.75502909240723,89.66620001251698,82.73252909240723,90.78000001251698,82.85252909240722,91.56000001251698C82.93122909240722,92.02880001251698,83.01002909240722,92.10750001251698,83.47872909240722,92.24250001251697C84.96372909240722,92.65130001251697,87.46502909240722,92.74880001251698,90.31502909240723,92.51630001251698C90.31502909240723,92.51630001251698,90.31122909240723,92.53880001251697,90.31122909240723,92.53880001251697ZM54.06372909240723,74.92130001251698C59.062529092407225,73.47750001251697,65.60622909240723,69.23630001251698,70.95752909240723,63.926300012516975C72.69752909240722,62.18630001251697,72.91122909240723,61.95380001251698,73.14372909240723,61.17380001251698C73.14372909240723,61.17380001251698,73.45502909240723,60.176300012516975,73.45502909240723,60.176300012516975C73.49252909240722,60.097500012516974,73.18122909240722,59.962500012516976,72.77252909240723,59.86500001251697C71.70002909240722,59.61000001251698,70.87872909240723,58.987500012516975,70.87872909240723,58.42130001251697C70.87872909240723,58.087500012516976,70.68372909240722,57.75750001251698,70.11752909240722,57.150000012516976C69.19872909240723,56.11500001251697,68.96622909240722,55.66500001251698,68.86872909240722,54.67130001251697C68.86872909240722,54.67130001251697,68.79002909240722,53.86880001251698,68.79002909240722,53.86880001251698C68.79002909240722,53.86880001251698,67.69502909240722,53.08880001251698,67.69502909240722,53.08880001251698C67.06872909240722,52.63870001251698,64.88252909240722,51.42750001251697,62.55752909240723,50.25750001251698C60.78722909240722,49.39390001251697,59.054429092407226,48.45550001251698,57.363729092407226,47.44500001251698C55.41002909240723,46.136300012516976,54.10122909240722,44.572500012516976,53.35872909240722,42.72000001251698C53.223729092407225,42.348800012516975,53.047529092407224,42.03750001251697,52.98752909240723,42.03750001251697C52.83002909240723,42.03750001251697,48.43502909240723,46.275000012516976,46.56002909240723,48.26630001251698C41.93252909240723,53.14880001251697,38.74872909240723,57.386300012516976,36.73502909240723,61.31250001251698C36.22872909240723,62.28750001251697,35.68122909240722,63.44250001251697,35.52372909240722,63.870000012516975C35.52372909240722,63.870000012516975,35.231229092407226,64.65000001251697,35.231229092407226,64.65000001251697C35.231229092407226,64.65000001251697,35.583729092407225,65.95880001251697,35.583729092407225,65.95880001251697C35.79752909240723,66.66380001251697,36.24752909240723,67.81500001251698,36.600029092407226,68.49750001251698C37.83002909240723,70.92000001251698,39.29622909240723,72.38250001251697,41.71872909240723,73.57500001251698C44.31752909240723,74.86500001251697,46.62002909240723,75.31500001251698,50.467529092407226,75.25500001251697C52.537529092407226,75.23630001251698,53.14502909240723,75.17630001251698,54.06002909240723,74.90250001251698C54.06002909240723,74.90250001251698,54.06372909240723,74.92130001251698,54.06372909240723,74.92130001251698ZM14.609999092407227,57.79130001251698C17.89124909240723,54.881300012516974,22.421229092407227,51.697500012516976,27.971229092407228,48.39750001251698C31.605029092407225,46.230000012516975,45.64872909240723,39.198800012516976,52.113729092407226,36.326300012516974C53.287529092407226,35.79750001251698,54.341229092407225,35.31000001251697,54.45752909240723,35.253800012516976C54.57372909240723,35.175000012516975,54.90752909240722,34.33500001251698,55.21872909240723,33.39750001251698C56.58752909240722,29.062500012516974,57.27002909240723,28.203800012516975,59.748729092407224,27.637500012516977C60.06002909240723,27.558800012516976,60.138729092407225,27.461300012516975,60.138729092407225,27.150000012516976C60.138729092407225,26.583800012516974,60.528729092407225,25.275000012516976,60.86252909240723,24.690000012516975C61.117529092407224,24.240000012516976,61.117529092407224,24.221300012516977,60.90002909240722,24.281300012516976C60.765029092407225,24.318800012516974,59.943729092407224,24.555000012516974,59.085029092407225,24.810000012516976C47.17122909240722,28.248800012516977,36.76122909240723,32.816300012516976,27.776229092407227,38.520000012516974C18.187499092407226,44.613800012516975,12.659999092407226,51.918800012516975,11.058749092407226,60.667500012516975C11.058749092407226,60.667500012516975,10.942499092407227,61.31250001251698,10.942499092407227,61.31250001251698C10.942499092407227,61.31250001251698,12.116249092407227,60.16120001251698,12.116249092407227,60.16120001251698C12.742499092407227,59.516200012516975,13.874999092407226,58.462500012516976,14.617499092407225,57.81750001251697C14.617499092407225,57.81750001251697,14.609999092407227,57.79130001251698,14.609999092407227,57.79130001251698ZM102.99002909240723,59.45250001251698C103.94622909240722,58.965000012516974,105.43122909240722,56.71880001251697,105.97872909240722,54.941300012516976C106.13622909240722,54.315000012516975,106.44752909240722,53.730000012516975,106.89752909240723,53.24250001251698C108.34122909240723,51.64130001251698,109.53392909240722,48.731300012516975,109.55292909240723,46.74000001251697C109.55292909240723,43.635000012516976,107.79372909240723,42.44250001251697,105.23622909240723,43.770000012516974C104.90252909240722,43.92750001251697,104.63252909240722,44.043800012516975,104.59122909240723,44.00620001251698C104.45622909240723,43.871300012516976,105.17622909240723,43.166200012516974,106.05752909240722,42.618700012516975C107.20872909240722,41.85750001251697,107.42622909240723,41.40750001251698,107.42622909240723,39.78750001251697C107.44322909240722,38.478100012516975,107.05412909240722,37.19550001251697,106.31252909240723,36.11630001251697C105.96002909240723,35.587500012516976,105.82502909240722,35.238800012516975,105.88122909240722,35.02120001251698C105.88122909240722,35.02120001251698,106.23372909240723,33.712500012516976,106.23372909240723,33.712500012516976C106.72122909240723,31.972500012516974,106.54502909240723,29.981300012516975,105.78372909240723,28.713800012516977C104.65122909240722,26.801300012516975,103.26372909240723,25.863800012516975,101.32872909240723,25.706300012516976C101.32872909240723,25.706300012516976,100.19622909240722,25.627500012516975,100.19622909240722,25.627500012516975C100.19622909240722,25.627500012516975,100.86002909240723,26.370000012516975,100.86002909240723,26.370000012516975C102.83252909240723,28.500000012516974,103.78872909240722,31.173800012516974,103.39872909240722,33.46130001251697C103.20372909240723,34.635000012516976,103.02752909240722,34.86750001251698,101.89502909240723,35.31750001251697C101.89502909240723,35.31750001251697,101.23122909240723,35.591300012516975,101.23122909240723,35.591300012516975C101.23122909240723,35.591300012516975,101.31002909240722,36.49130001251697,101.31002909240722,36.49130001251697C101.44502909240722,37.957500012516974,101.19372909240722,39.03000001251698,100.25622909240722,41.002500012516975C99.78752909240723,42.00000001251698,99.43502909240722,42.896300012516974,99.47622909240722,42.99380001251698C99.59252909240723,43.32750001251698,100.88252909240722,43.95000001251697,101.89872909240722,44.205000012516976C101.89872909240722,44.205000012516976,102.89622909240722,44.441300012516976,102.89622909240722,44.441300012516976C102.89622909240722,44.441300012516976,102.27002909240723,44.65500001251698,102.27002909240723,44.65500001251698C101.44872909240722,44.910000012516974,101.27252909240723,45.28130001251697,101.27252909240723,46.627500012516975C101.27252909240723,47.85750001251697,101.44872909240722,48.36750001251698,102.34502909240723,49.71380001251698C102.75372909240723,50.29880001251698,103.02752909240722,50.90630001251697,103.06872909240722,51.25500001251697C103.14752909240723,51.80250001251697,103.12872909240723,51.840000012516974,102.67872909240722,51.99750001251697C102.16862909240723,52.14060001251698,101.64412909240723,52.226200012516976,101.11502909240723,52.252500012516975C99.27752909240722,52.36880001251698,99.14252909240723,52.42880001251697,98.32122909240722,53.208800012516974C97.57872909240723,53.91380001251697,97.56002909240722,53.951300012516974,97.56002909240722,54.731300012516975C97.56002909240722,55.80380001251697,97.96872909240723,57.97500001251697,98.22372909240723,58.267500012516976C98.55752909240722,58.620000012516975,100.41002909240723,59.53880001251697,101.13372909240722,59.67380001251698C101.75792909240722,59.83050001251698,102.41782909240723,59.75450001251698,102.99002909240723,59.46000001251698C102.99002909240723,59.46000001251698,102.99002909240723,59.45250001251698,102.99002909240723,59.45250001251698ZM75.93752909240723,57.99000001251697C77.13002909240723,57.05250001251697,78.06752909240723,56.11500001251697,78.59252909240723,55.31250001251698C78.92622909240723,54.82500001251697,78.94502909240722,54.72750001251698,78.78752909240723,54.315000012516975C78.51372909240723,53.68880001251698,76.71752909240723,52.068800012516974,75.72002909240723,51.58130001251698C75.05532909240722,51.283500012516974,74.35222909240723,51.080200012516976,73.63122909240722,50.97750001251698C73.63122909240722,50.97750001251698,72.40122909240722,50.82000001251698,72.40122909240722,50.82000001251698C72.40122909240722,50.82000001251698,71.64002909240722,49.863800012516975,71.64002909240722,49.863800012516975C70.05752909240724,47.910000012516974,69.18002909240722,46.38750001251697,67.92752909240723,43.43630001251697C66.83252909240723,40.93500001251697,65.87622909240723,39.472500012516974,64.35372909240724,38.025000012516976C63.727529092407224,37.440000012516975,63.28122909240723,36.95250001251698,63.318729092407224,36.95250001251698C63.397529092407225,36.95250001251698,64.14002909240722,37.323800012516976,64.99872909240722,37.77380001251697C66.42372909240723,38.535000012516974,66.60002909240723,38.59500001251698,67.24502909240724,38.49750001251697C69.57002909240722,38.22370001251698,71.62122909240722,35.550000012516975,72.36372909240723,31.800000012516975C72.57752909240722,30.746200012516976,73.00872909240724,29.670000012516976,73.45872909240722,29.025000012516976C73.47752909240722,29.006300012516974,74.37752909240723,29.591300012516975,75.43122909240722,30.352500012516977C78.10872909240723,32.246300012516976,78.69372909240722,32.53880001251697,80.21622909240723,32.59870001251698C81.21372909240722,32.636300012516976,81.78002909240723,32.56130001251697,83.57622909240723,32.13000001251697C87.40502909240723,31.192500012516977,91.54502909240723,30.821200012516975,94.06502909240723,31.155000012516975C95.49002909240723,31.350000012516976,97.54122909240722,31.976300012516976,99.06372909240723,32.696200012516975C100.56752909240723,33.40130001251698,100.86002909240723,33.43880001251698,101.34752909240723,33.00750001251698C101.75622909240722,32.65500001251698,101.75622909240722,32.59870001251698,101.75622909240722,31.290000012516977C101.73752909240723,29.355000012516975,101.03252909240723,27.266300012516975,99.96002909240723,26.017500012516976C99.41252909240723,25.372500012516976,97.87122909240723,24.318800012516974,96.34502909240723,23.516300012516975C95.80242909240722,23.228500012516974,95.26242909240723,22.936000012516974,94.72502909240723,22.638800012516974C94.00122909240723,22.207500012516974,93.18372909240723,22.267500012516976,90.95622909240723,22.852500012516977C88.37622909240723,23.516300012516975,87.69372909240722,23.516300012516975,84.74622909240723,22.755000012516977C82.24502909240722,22.128800012516976,82.09122909240723,22.110000012516977,79.62752909240723,22.500000012516974C78.31872909240722,22.695000012516974,75.03752909240723,22.578800012516975,73.94252909240723,22.286300012516975C73.39502909240723,22.128800012516976,72.84752909240723,21.975000012516976,72.32252909240722,21.780000012516975C71.36622909240722,21.408800012516977,69.70502909240723,21.348800012516975,68.20122909240723,21.622500012516976C65.21252909240722,22.151300012516977,62.94752909240723,23.771300012516974,62.12622909240723,25.976300012516976C61.695029092407225,27.090000012516974,61.75502909240723,27.618800012516974,62.32122909240723,27.967500012516975C63.22122909240723,28.533800012516977,64.41002909240723,30.078800012516975,64.41002909240723,30.682500012516975C64.41002909240723,30.720000012516977,64.11752909240722,30.468800012516976,63.78372909240723,30.116300012516977C62.943729092407224,29.238800012516975,62.18252909240723,28.845000012516977,61.28252909240722,28.845000012516977C60.70022909240723,28.861200012516974,60.13392909240723,29.039700012516974,59.64762909240723,29.360300012516976C59.16132909240723,29.681000012516975,58.774229092407225,30.131100012516974,58.530029092407226,30.660000012516974C58.26722909240723,31.350000012516976,58.04552909240723,32.05500001251697,57.866229092407224,32.771300012516974C57.318729092407224,34.76250001251697,56.83122909240723,35.82000001251698,55.79622909240722,37.22630001251697C54.87752909240723,38.49750001251697,54.742529092407224,39.06380001251698,55.07252909240723,40.488800012516975C55.89372909240723,44.08130001251698,57.318729092407224,45.528800012516975,63.27372909240723,48.90750001251698C66.39752909240723,50.68500001251697,67.99872909240722,51.682500012516975,69.17252909240722,52.56000001251697C70.07252909240722,53.223800012516975,70.09122909240722,53.26500001251698,70.01252909240722,53.771300012516974C69.83622909240722,54.94500001251698,70.57872909240723,56.212500012516976,72.04502909240722,57.24750001251697C72.41622909240724,57.502500012516975,72.64872909240722,57.77630001251698,72.64872909240722,57.97130001251698C72.64872909240722,58.323800012516976,73.64622909240722,58.81130001251697,74.36622909240722,58.81130001251697C74.77502909240722,58.81130001251697,75.09002909240722,58.635000012516976,75.93002909240722,57.99000001251697C75.93002909240722,57.99000001251697,75.93752909240723,57.99000001251697,75.93752909240723,57.99000001251697ZM100.02002909240723,51.40500001251698C102.28502909240723,51.48380001251697,102.40122909240722,51.307500012516975,101.19372909240722,49.90130001251698C99.92252909240723,48.43500001251697,99.57372909240722,47.246300012516976,100.04252909240722,45.93750001251698C100.04252909240722,45.93750001251698,100.23752909240723,45.431200012516975,100.23752909240723,45.431200012516975C100.23752909240723,45.431200012516975,99.43502909240722,45.041200012516974,99.43502909240722,45.041200012516974C99.16122909240723,44.90630001251697,98.88752909240722,44.767500012516976,98.61372909240723,44.67000001251697C98.47872909240722,45.198800012516976,98.34002909240722,45.705000012516976,98.22372909240723,46.23380001251697C97.93122909240722,47.426300012516975,97.57872909240723,50.51250001251697,97.56002909240722,51.82130001251698C97.56002909240722,51.93750001251698,97.75502909240723,51.900000012516976,98.08872909240722,51.68630001251697C98.55752909240722,51.41250001251697,98.79372909240723,51.37500001251698,100.02372909240722,51.41250001251697C100.02372909240722,51.41250001251697,100.02002909240723,51.40500001251698,100.02002909240723,51.40500001251698ZM92.42252909240723,51.28880001251697C93.79122909240722,51.21000001251698,95.19752909240722,51.112500012516975,95.56872909240722,51.05250001251697C95.56872909240722,51.05250001251697,96.25122909240723,50.955000012516976,96.25122909240723,50.955000012516976C96.25122909240723,50.955000012516976,96.33002909240723,48.708800012516974,96.33002909240723,48.708800012516974C96.44622909240722,45.506300012516974,96.91502909240722,43.612500012516975,98.30252909240723,40.582500012516974C99.27752909240722,38.43370001251697,99.70872909240722,36.55870001251697,99.49502909240722,35.152500012516974C99.41622909240722,34.548700012516974,99.37872909240723,34.50750001251698,98.55752909240722,34.15500001251698C97.05372909240722,33.557900012516974,95.48762909240723,33.13150001251697,93.88872909240723,32.88380001251698C92.34752909240723,32.67000001251697,87.81372909240723,32.78620001251698,86.11502909240723,33.120000012516975C85.41002909240723,33.236200012516974,84.12372909240723,33.510000012516976,83.26502909240723,33.723800012516975C81.13502909240722,34.21130001251697,80.00252909240723,34.15500001251698,78.38252909240722,33.45000001251697C76.78122909240723,32.745000012516975,75.76502909240723,32.10380001251697,74.80872909240723,31.203800012516975C74.04752909240723,30.498800012516977,73.96872909240723,30.461200012516976,73.77372909240722,30.697500012516976C73.61622909240722,30.873800012516977,73.53752909240723,31.402500012516974,73.48122909240723,32.535000012516974C73.42122909240723,34.275000012516976,73.14752909240723,35.190000012516975,72.38622909240723,36.42000001251697C72.21712909240722,36.673100012516976,72.07272909240723,36.94180001251698,71.95502909240723,37.222500012516974C71.95502909240723,37.28250001251698,72.54002909240722,37.965000012516974,73.26372909240723,38.707500012516974C75.76502909240723,41.306200012516975,76.99502909240722,41.97000001251698,78.96752909240723,41.83130001251698C79.61252909240723,41.77120001251698,80.06252909240723,41.793800012516975,80.06252909240723,41.86880001251698C80.06252909240723,42.02630001251698,78.79122909240722,43.020000012516974,78.26622909240723,43.293800012516975C78.01122909240722,43.42880001251697,77.95502909240723,43.56750001251697,77.99252909240722,43.86000001251698C77.99252909240722,43.86000001251698,78.30372909240722,45.911300012516975,78.30372909240722,45.911300012516975C78.48002909240722,47.08500001251698,78.61502909240723,47.628800012516976,78.79122909240722,47.786300012516975C79.26002909240722,48.176300012516975,81.68252909240722,49.42880001251697,83.20502909240723,50.051300012516975C85.19622909240722,50.85380001251698,86.29122909240722,51.146300012516974,87.81372909240723,51.28130001251697C89.68872909240723,51.43880001251698,89.72622909240722,51.43880001251698,92.42252909240723,51.28130001251697C92.42252909240723,51.28130001251697,92.42252909240723,51.28880001251697,92.42252909240723,51.28880001251697ZM76.27122909240722,49.14000001251698C76.30872909240723,49.080000012516976,76.17372909240723,47.947500012516976,75.91872909240723,46.638800012516974C75.60752909240723,44.86130001251698,75.43122909240722,44.216300012516975,75.23622909240723,44.04000001251698C75.10122909240722,43.92380001251698,74.37752909240723,43.41380001251697,73.65372909240723,42.888800012516974C72.70282909240723,42.205000012516976,71.80182909240722,41.454300012516974,70.95752909240723,40.642500012516976C70.95752909240723,40.642500012516976,69.61122909240723,39.315000012516975,69.61122909240723,39.315000012516975C69.61122909240723,39.315000012516975,68.88752909240722,39.68630001251697,68.88752909240722,39.68630001251697C68.88752909240722,39.68630001251697,68.12622909240723,40.09500001251698,68.12622909240723,40.09500001251698C68.19032909240723,40.40010001251697,68.29502909240722,40.69520001251698,68.43752909240723,40.972500012516974C68.65122909240722,41.441300012516976,69.08252909240723,42.59250001251698,69.39372909240723,43.53000001251698C70.21502909240724,45.97130001251698,70.86002909240722,47.145000012516974,72.48002909240722,49.271300012516974C72.48002909240722,49.271300012516974,73.08372909240722,50.073800012516976,73.08372909240722,50.073800012516976C73.08372909240722,50.073800012516976,74.23502909240723,50.25000001251698,74.23502909240723,50.25000001251698C74.88002909240723,50.347500012516974,75.52502909240722,50.486200012516974,75.70122909240723,50.542500012516975C75.97502909240723,50.658700012516974,76.01252909240722,50.60250001251698,76.09122909240723,49.97630001251697C76.12872909240723,49.70250001251698,76.18872909240723,49.410000012516974,76.26752909240723,49.136300012516976C76.26752909240723,49.136300012516976,76.27122909240722,49.14000001251698,76.27122909240722,49.14000001251698ZM101.01752909240723,24.843800012516976C102.01502909240723,24.746300012516976,102.19122909240723,24.607500012516976,101.76002909240722,24.161300012516975C101.48622909240723,23.887500012516977,100.86002909240723,23.868800012516974,100.35372909240722,24.101300012516976C100.02002909240723,24.258800012516975,99.94502909240722,24.217500012516975,99.41622909240722,23.651300012516977C98.86872909240722,23.047500012516977,98.83122909240723,23.025000012516976,98.14502909240723,23.103800012516974C97.51872909240723,23.182500012516975,97.42122909240723,23.163800012516976,97.34252909240723,22.908800012516977C97.09862909240722,22.489900012516976,96.79552909240722,22.108400012516974,96.44252909240723,21.776300012516977C95.99892909240722,21.272200012516976,95.44432909240723,20.878100012516974,94.82252909240722,20.625000012516974C93.61122909240723,20.156300012516976,92.92872909240722,20.216300012516975,91.77372909240722,20.861300012516974C88.43252909240722,22.676300012516975,88.57122909240722,22.657500012516977,85.34622909240723,21.836300012516975C82.33872909240722,21.075000012516977,80.09252909240723,20.295000012516976,79.36872909240722,19.803800012516977C78.76502909240723,19.395000012516974,77.47502909240723,18.945000012516974,76.39872909240722,18.806300012516974C75.59622909240723,18.690000012516975,75.09002909240722,18.866300012516977,74.32872909240723,19.488800012516975C74.32872909240723,19.488800012516975,73.92002909240723,19.822500012516976,73.92002909240723,19.822500012516976C73.92002909240723,19.822500012516976,74.29122909240722,20.467500012516975,74.29122909240722,20.467500012516975C74.79752909240723,21.367500012516974,74.74122909240722,21.423800012516974,73.98002909240722,20.760000012516976C73.15872909240723,20.077500012516975,72.18372909240722,19.608800012516976,71.55752909240724,19.586300012516975C71.10752909240722,19.586300012516975,69.78002909240723,20.171300012516976,69.62252909240723,20.426300012516975C69.56252909240723,20.505000012516977,69.97502909240723,20.602500012516977,70.52252909240723,20.640000012516975C71.08872909240722,20.700000012516977,71.86872909240722,20.895000012516974,72.39752909240723,21.108800012516976C73.76622909240723,21.693800012516974,74.46752909240723,21.888800012516974,75.71622909240723,22.008800012516975C77.08502909240723,22.143800012516976,79.56372909240723,21.990000012516976,79.85622909240723,21.753800012516976C80.01372909240723,21.618800012516974,80.44122909240723,21.596300012516977,81.34122909240723,21.675000012516975C82.53372909240723,21.753800012516976,83.02122909240722,21.870000012516975,85.85252909240722,22.631300012516974C87.49502909240722,23.081300012516976,88.64622909240722,23.040000012516977,90.60002909240723,22.515000012516975C91.50002909240723,22.260000012516976,92.63252909240722,22.008800012516975,93.10122909240722,21.948800012516976C93.90372909240723,21.870000012516975,94.05752909240722,21.911300012516975,95.31002909240722,22.477500012516977C97.30122909240723,23.377500012516975,98.35872909240723,23.943800012516974,98.94372909240722,24.468800012516976C99.52872909240723,24.975000012516976,99.60752909240723,24.975000012516976,101.01372909240723,24.858800012516976C101.01372909240723,24.858800012516976,101.01752909240723,24.843800012516976,101.01752909240723,24.843800012516976ZM89.88372909240722,21.427500012516976C89.88372909240722,21.427500012516976,91.07622909240723,20.801300012516975,91.07622909240723,20.801300012516975C91.07622909240723,20.801300012516975,91.03872909240722,19.590000012516974,91.03872909240722,19.590000012516974C91.02002909240723,18.750000012516974,90.97872909240722,17.928800012516977,90.94122909240723,17.111300012516974C90.94122909240723,17.111300012516974,90.84372909240723,15.862500012516975,90.84372909240723,15.862500012516975C90.84372909240723,15.862500012516975,89.65122909240722,16.781300012516976,89.65122909240722,16.781300012516976C88.94622909240722,17.328800012516975,88.26372909240723,17.737500012516975,87.97122909240723,17.797500012516977C87.11252909240723,17.955000012516976,82.87502909240723,17.797500012516977,82.48122909240723,17.583800012516974C81.95672909240723,17.196300012516975,81.46612909240723,16.764700012516975,81.01502909240723,16.293800012516975C81.01502909240723,16.293800012516975,79.92002909240723,15.180000012516976,79.92002909240723,15.180000012516976C79.92002909240723,15.180000012516976,79.90122909240722,15.843800012516976,79.90122909240722,15.843800012516976C79.90122909240722,16.196300012516975,79.86372909240723,16.800000012516975,79.78502909240723,17.171300012516976C79.68752909240723,17.876300012516975,79.68752909240723,17.895000012516974,80.44872909240722,18.851300012516976C80.85752909240723,19.380000012516977,81.19122909240723,19.848800012516975,81.19122909240723,19.905000012516975C81.19122909240723,20.276300012516977,86.83502909240723,22.035000012516974,88.10622909240723,22.053800012516977C88.51502909240723,22.053800012516977,89.02502909240722,21.877500012516975,89.88372909240722,21.427500012516976C89.88372909240722,21.427500012516976,89.88372909240722,21.427500012516976,89.88372909240722,21.427500012516976ZM87.61872909240722,16.991300012516977C89.02502909240722,16.717500012516975,89.70752909240723,15.701300012516976,90.23622909240723,13.125000012516976C90.78372909240723,10.350000012516976,91.05752909240722,5.996250012516976,90.80252909240723,4.140000012516976C90.56622909240723,2.4600000125169754,88.69122909240723,1.7175000125169755,85.11752909240722,1.8337500125169754C82.89002909240723,1.9125000125169753,81.97122909240723,2.1262500125169757,81.21002909240723,2.7712500125169752C80.74122909240722,3.1612500125169753,80.74122909240722,3.2025000125169756,80.52752909240722,5.055000012516976C80.13752909240722,8.610000012516975,80.72252909240723,13.668800012516975,81.73872909240723,15.562500012516976C82.22622909240722,16.481300012516975,82.65752909240723,16.811300012516977,83.55372909240722,16.968800012516976C84.57002909240722,17.145000012516974,86.73752909240723,17.145000012516974,87.61502909240723,16.987500012516975C87.61502909240723,16.987500012516975,87.61872909240722,16.991300012516977,87.61872909240722,16.991300012516977Z" fill="#000000" fill-opacity="1"/></g></g></svg>