<svg xmlns="http://www.w3.org/2000/svg" xmlns:xlink="http://www.w3.org/1999/xlink" fill="none" version="1.1" width="131" height="131" viewBox="0 0 131 131"><defs><clipPath id="master_svg0_0_572"><rect x="0" y="0" width="131" height="131" rx="0"/></clipPath></defs><g clip-path="url(#master_svg0_0_572)"><g><path d="M36.8437,56.08437805175781C40.6646,40.801038051757814,50.2167,33.15937805175781,65.5,33.15937805175781C88.425,33.15937805175781,91.2906,50.35307805175781,102.7531,53.21877805175781C110.3945,55.12917805175781,117.0815,52.26357805175781,122.8125,44.62187805175781C118.9915,59.905178051757815,109.4395,67.54687805175782,94.1563,67.54687805175782C71.2313,67.54687805175782,68.3656,50.35307805175781,56.9031,47.48747805175781C49.2615,45.57707805175781,42.575,48.44267805175781,36.8437,56.08437805175781ZM8.1875,90.47187805175781C12.00833,75.18857805175782,21.5604,67.54687805175782,36.8437,67.54687805175782C59.7687,67.54687805175782,62.6344,84.74057805175781,74.0969,87.60627805175781C81.7385,89.51667805175782,88.425,86.65107805175782,94.1563,79.0093780517578C90.3354,94.2926780517578,80.7833,101.93437805175782,65.5,101.93437805175782C42.575,101.93437805175782,39.7094,84.74057805175781,28.2469,81.87497805175781C20.6052,79.96457805175781,13.91875,82.83017805175781,8.1875,90.47187805175781Z" fill="#44A8B3" fill-opacity="1"/></g></g></svg>