<svg xmlns="http://www.w3.org/2000/svg" xmlns:xlink="http://www.w3.org/1999/xlink" fill="none" version="1.1" width="112" height="112" viewBox="0 0 112 112"><defs><clipPath id="master_svg0_0_575"><rect x="0" y="0" width="112" height="112" rx="0"/></clipPath></defs><g clip-path="url(#master_svg0_0_575)"><g><path d="M101.53495398864746,17.605046990966798C101.53495398864746,17.605046990966798,81.35395398864746,7.888999990966797,81.35395398864746,7.888999990966797C80.21435398864746,7.339492890966797,78.93195398864746,7.158154990966797,77.68455398864747,7.370124490966797C76.43715398864747,7.582093990966797,75.28665398864746,8.176868990966797,74.39245398864746,9.071996990966797C74.39245398864746,9.071996990966797,8.33000398864746,69.30004699096679,8.33000398864746,69.30004699096679C7.528467988647461,70.0273469909668,7.048674388647461,71.0432469909668,6.996164498647461,72.1242469909668C6.943654588647461,73.2053469909668,7.3227289886474605,74.2629469909668,8.050003988647461,75.0645469909668C8.137503988647461,75.1590469909668,8.225003988647462,75.2500469909668,8.319503988647462,75.3340469909668C8.319503988647462,75.3340469909668,13.713003988647461,80.2340469909668,13.713003988647461,80.2340469909668C14.417773988647461,80.8754469909668,15.32494398864746,81.2497469909668,16.276973988647462,81.29194699096679C17.22895398864746,81.3341469909668,18.16575398864746,81.0415469909668,18.92445398864746,80.4650469909668C18.92445398864746,80.4650469909668,98.49695398864746,20.125046990966798,98.49695398864746,20.125046990966798C99.09805398864746,19.668946990966795,99.81445398864746,19.389646990966796,100.56555398864747,19.318646990966798C101.31675398864746,19.247646990966796,102.07275398864746,19.387746990966797,102.74855398864746,19.723146990966796C103.42445398864746,20.058446990966797,103.99325398864747,20.575846990966795,104.39105398864746,21.216946990966797C104.78875398864746,21.8580469909668,104.99965398864747,22.597546990966798,104.99995398864746,23.352046990966798C104.99995398864746,23.352046990966798,104.99995398864746,23.117546990966797,104.99995398864746,23.117546990966797C104.99995398864746,21.965646990966796,104.67465398864746,20.837246990966797,104.06175398864747,19.862046990966796C103.44875398864747,18.886846990966795,102.57295398864746,18.104446990966796,101.53495398864746,17.605046990966798C101.53495398864746,17.605046990966798,101.53495398864746,17.605046990966798,101.53495398864746,17.605046990966798Z" fill="#0065A9" fill-opacity="1"/></g><g><path d="M101.53495398864746,94.39499177246094C101.53495398864746,94.39499177246094,81.35395398864746,104.11449177246094,81.35395398864746,104.11449177246094C80.21395398864746,104.66249177246094,78.93195398864746,104.84299177246093,77.68495398864746,104.63099177246093C76.43795398864746,104.41909177246093,75.28755398864746,103.82529177246094,74.39245398864746,102.93149177246094C74.39245398864746,102.93149177246094,8.33000398864746,42.69999177246093,8.33000398864746,42.69999177246093C7.528467988647461,41.972691772460934,7.048674388647461,40.95679177246094,6.996164498647461,39.87574177246094C6.943654588647461,38.794691772460936,7.3227289886474605,37.73706177246094,8.050003988647461,36.93550177246094C8.137503988647461,36.841001772460935,8.225003988647462,36.750001772460934,8.319503988647462,36.66600177246094C8.319503988647462,36.66600177246094,13.713003988647461,31.76600177246094,13.713003988647461,31.76600177246094C14.418483988647461,31.12187177246094,15.32774398864746,30.745895472460937,16.28211398864746,30.70367777246094C17.23645398864746,30.661460072460937,18.17535398864746,30.955680772460937,18.93495398864746,31.535001772460937C18.93495398864746,31.535001772460937,98.49695398864746,91.87499177246093,98.49695398864746,91.87499177246093C99.09805398864746,92.33109177246094,99.81445398864746,92.61029177246094,100.56555398864747,92.68139177246093C101.31675398864746,92.75239177246094,102.07275398864746,92.61229177246094,102.74855398864746,92.27689177246094C103.42445398864746,91.94149177246094,103.99325398864747,91.42419177246094,104.39105398864746,90.78299177246095C104.78875398864746,90.14189177246094,104.99965398864747,89.40249177246093,104.99995398864746,88.64799177246094C104.99995398864746,88.64799177246094,104.99995398864746,88.89999177246094,104.99995398864746,88.89999177246094C104.99625398864747,90.04879177246093,104.66925398864745,91.17329177246094,104.05655398864747,92.14509177246094C103.44375398864746,93.11679177246094,102.56995398864746,93.89649177246093,101.53495398864746,94.39499177246094C101.53495398864746,94.39499177246094,101.53495398864746,94.39499177246094,101.53495398864746,94.39499177246094Z" fill="#007ACC" fill-opacity="1"/></g><g><path d="M81.35399426269531,104.11444529190064C80.21397426269532,104.66244529190064,78.93194426269531,104.84294529190063,77.68495426269531,104.63104529190063C76.43795426269531,104.41914529190063,75.28751226269532,103.82524529190063,74.39249326269531,102.93144529190063C74.89510926269531,103.42754529190063,75.53295426269531,103.76424529190064,76.22609426269531,103.89934529190063C76.91923426269531,104.03444529190064,77.63683426269532,103.96204529190064,78.28897426269532,103.69104529190064C78.94111426269531,103.42014529190064,79.4987742626953,102.96274529190063,79.89209426269531,102.37624529190063C80.28540426269531,101.78974529190063,80.49687426269531,101.10014529190063,80.49999426269531,100.39394529190064C80.49999426269531,100.39394529190064,80.49999426269531,11.605995291900634,80.49999426269531,11.605995291900634C80.50058426269531,10.896505291900635,80.29057426269532,10.202805291900635,79.89658426269531,9.612765291900635C79.50259426269531,9.022735291900634,78.94233426269531,8.562905291900634,78.28679426269531,8.291545291900634C77.63125426269531,8.020180291900635,76.90991426269531,7.949490291900634,76.21415426269532,8.088426291900635C75.51840426269531,8.227363291900634,74.87953926269532,8.569675291900635,74.37849426269531,9.071995291900635C75.27283326269531,8.177192291900635,76.42311426269531,7.582380291900635,77.6702442626953,7.369821891900635C78.91737426269532,7.157264291900635,80.19974426269532,7.3374634919006345,81.33999426269531,7.885499291900635C81.33999426269531,7.885499291900635,101.51749426269531,17.587545291900636,101.51749426269531,17.587545291900636C102.55869426269531,18.084545291900636,103.43809426269532,18.865745291900637,104.05429426269531,19.841145291900634C104.67049426269531,20.816545291900635,104.99839426269531,21.946245291900635,104.99999426269531,23.100045291900635C104.99999426269531,23.100045291900635,104.99999426269531,88.89994529190064,104.99999426269531,88.89994529190064C105.00029426269532,90.05284529190064,104.67479426269531,91.18224529190063,104.06119426269531,92.15814529190064C103.44749426269532,93.13404529190063,102.57059426269531,93.91674529190064,101.5314942626953,94.41594529190064C101.5314942626953,94.41594529190064,81.35399426269531,104.11444529190064,81.35399426269531,104.11444529190064Z" fill="#1F9CF0" fill-opacity="1"/></g></g></svg>